<?xml version="1.0" standalone="no"?>
<!DOCTYPE svg PUBLIC "-//W3C//DTD SVG 20010904//EN"
 "http://www.w3.org/TR/2001/REC-SVG-20010904/DTD/svg10.dtd">
<svg version="1.0" xmlns="http://www.w3.org/2000/svg"
 width="300.000000pt" height="450.000000pt" viewBox="0 0 300.000000 450.000000"
 preserveAspectRatio="xMidYMid meet">
<metadata>
Created by potrace 1.10, written by Peter Selinger 2001-2011
</metadata>
<g transform="translate(0.000000,450.000000) scale(0.050000,-0.050000)"
fill="#f5fffa" stroke="none">
<path d="M345 8960 c-75 -119 -19 -249 98 -226 46 9 63 206 18 206 -9 0 -11
-21 -6 -48 5 -26 -1 -53 -13 -61 -20 -12 -33 69 -23 144 5 39 -47 29 -74 -15z"/>
<path d="M3569 8981 c14 -23 131 -21 131 2 0 9 -32 17 -71 17 -39 0 -66 -8
-60 -19z"/>
<path d="M3732 8815 c-6 -102 -26 -572 -43 -1045 -28 -799 -71 -1676 -102
-2098 l-13 -178 78 13 c43 7 105 13 138 13 l60 0 5 1740 5 1740 -58 0 -58 0
-12 -185z"/>
<path d="M3904 8945 c3 -32 18 -55 36 -55 16 0 33 -17 37 -37 5 -26 -1 -33
-18 -22 -18 11 -20 7 -9 -12 10 -15 15 -65 13 -111 -3 -47 5 -90 16 -98 12 -7
16 -21 10 -32 -17 -26 -16 -717 1 -781 8 -31 4 -58 -8 -66 -28 -17 -29 -105
-2 -121 12 -7 15 -22 9 -32 -7 -11 -11 -148 -10 -304 2 -156 5 -480 7 -719 2
-239 10 -435 17 -435 7 0 15 -88 18 -195 7 -294 6 -313 -18 -321 -70 -23 -19
-69 61 -56 103 17 94 -1 72 142 -10 66 -23 829 -29 1695 -10 1358 -15 1575
-40 1575 -16 0 -24 9 -17 20 7 11 4 20 -7 20 -11 0 -25 -11 -31 -25 -10 -20
-14 -20 -24 0 -24 52 -91 29 -84 -30z"/>
<path d="M4231 8941 c25 -114 41 -693 22 -753 -9 -27 -3 -51 17 -68 17 -14 29
-53 27 -87 -3 -61 -3 -61 -11 -8 -8 49 -42 78 -49 40 -10 -63 -9 -107 3 -115
8 -5 8 -44 1 -86 -8 -42 -7 -94 1 -115 23 -59 21 -158 -4 -183 -15 -15 -15
-25 0 -35 12 -7 22 -22 22 -33 0 -11 -9 -15 -20 -8 -11 7 -20 -2 -20 -19 0
-17 7 -31 16 -31 9 0 17 -20 17 -45 1 -25 8 -70 16 -100 10 -36 8 -55 -7 -55
-12 0 -22 -13 -22 -30 0 -16 9 -30 20 -30 11 0 20 -13 20 -30 0 -16 -10 -30
-22 -30 -15 0 -14 -10 3 -32 21 -25 21 -34 1 -47 -28 -17 -44 -458 -17 -474 9
-6 10 -19 3 -31 -24 -39 -38 -345 -28 -646 3 -110 1 -230 -6 -267 l-12 -68 74
12 c41 7 86 13 101 13 22 0 25 152 14 895 -7 492 -15 1260 -17 1705 l-4 810
-75 1 c-69 1 -74 -2 -64 -50z"/>
<path d="M4477 8986 c-9 -40 -6 -266 3 -266 27 0 33 -291 11 -510 -6 -55 -14
-176 -19 -270 -4 -93 -13 -183 -19 -200 -6 -16 -11 -97 -10 -180 0 -217 -22
-1911 -28 -2168 l-5 -218 90 -25 c50 -14 110 -32 135 -39 l45 -15 -1 438 c0
420 -17 543 -66 493 -22 -22 -14 -82 11 -91 36 -12 41 -630 6 -650 -14 -8 -29
-32 -33 -54 -4 -21 -16 -39 -27 -40 -31 -2 -37 89 -9 141 20 37 20 53 0 77
-15 18 -20 52 -13 80 8 32 -2 77 -28 126 -23 43 -32 78 -20 82 27 9 26 69 -2
97 -16 16 -16 60 -1 159 12 75 22 209 21 297 -1 180 18 604 32 710 5 39 14
151 19 250 5 99 11 182 13 185 5 7 12 98 18 235 3 66 12 129 19 140 8 11 15
43 17 70 1 28 12 109 23 180 12 72 23 319 26 550 l5 420 -105 6 c-58 3 -107
-1 -108 -10z"/>
<path d="M5140 8985 c49 -4 104 -21 122 -36 33 -31 58 -20 58 24 0 20 -34 26
-135 24 -106 -3 -116 -6 -45 -12z"/>
<path d="M5413 8935 c28 -51 37 -57 43 -29 11 52 -10 94 -46 94 -27 0 -27 -8
3 -65z"/>
<path d="M363 8526 c28 -33 86 -33 113 -1 16 19 3 25 -57 26 -61 1 -73 -5 -56
-25z"/>
<path d="M5700 8060 c-2 -203 -5 -404 -7 -447 -3 -42 3 -80 11 -86 9 -5 16 56
17 137 0 80 3 263 6 406 3 143 -1 283 -9 310 -8 28 -16 -116 -18 -320z"/>
<path d="M5942 8277 c-31 -90 -27 -115 18 -112 33 3 40 18 40 89 0 101 -27
112 -58 23z"/>
<path d="M5435 8178 c-45 -49 -44 -58 5 -58 29 0 40 13 40 50 0 58 1 58 -45 8z"/>
<path d="M1133 7486 c-43 -84 -63 -102 -137 -124 -200 -59 -325 -271 -221
-375 56 -56 97 -24 50 39 -9 13 -17 56 -16 94 3 168 418 38 524 -165 l34 -65
17 60 c35 125 -21 279 -114 313 -35 12 -74 40 -87 60 -40 63 41 46 107 -23 32
-33 69 -60 83 -60 85 0 91 -55 147 -1400 24 -571 29 -620 64 -620 25 0 19 212
-36 1280 -21 405 -41 649 -58 683 -14 29 -21 75 -16 101 6 29 -3 59 -22 75
-18 14 -32 46 -32 70 0 61 -80 130 -166 144 -69 11 -72 9 -121 -87z"/>
<path d="M879 7008 c-29 -76 -9 -148 41 -148 22 0 40 -9 40 -20 0 -24 115 -73
211 -91 68 -13 169 28 169 68 0 22 -155 68 -179 54 -10 -6 -30 1 -45 15 -14
15 -51 24 -81 20 -40 -5 -55 1 -55 25 0 18 -18 55 -40 83 l-39 50 -22 -56z"/>
<path d="M4646 6615 c-14 -68 -14 -109 -2 -117 12 -8 10 -28 -5 -53 -16 -24
-19 -54 -9 -77 19 -44 19 -37 0 -126 -9 -44 -7 -63 6 -54 11 7 25 1 30 -13 5
-14 10 103 12 260 3 315 0 334 -32 180z"/>
<path d="M998 5908 c-2 -43 -1 -86 0 -95 2 -9 5 -97 8 -194 2 -103 14 -187 27
-200 25 -25 24 162 -4 421 -16 152 -28 179 -31 68z"/>
<path d="M4560 5804 c0 -53 -11 -107 -24 -120 -18 -18 -19 -29 0 -48 13 -13
27 -19 31 -15 16 18 24 279 9 279 -9 0 -16 -43 -16 -96z"/>
<path d="M2903 5830 c14 -14 209 -51 327 -63 168 -16 77 27 -108 51 -186 24
-234 27 -219 12z"/>
<path d="M2160 5800 c40 -26 146 -26 130 0 -7 11 -46 20 -86 20 -55 -1 -66 -6
-44 -20z"/>
<path d="M2560 5741 c50 -17 194 -28 178 -14 -4 4 -57 13 -118 19 -71 7 -92 5
-60 -5z"/>
<path d="M1920 5692 c0 -15 -13 -38 -30 -52 -16 -14 -29 -35 -28 -47 1 -15 5
-14 11 2 19 48 48 25 38 -30 -12 -67 5 -130 31 -114 22 14 15 269 -7 269 -8 0
-15 -12 -15 -28z"/>
<path d="M3465 5698 c44 -25 -6 -90 -56 -71 -17 7 -29 0 -29 -18 0 -54 59 -56
107 -4 49 53 33 116 -29 114 -19 0 -17 -7 7 -21z"/>
<path d="M3760 5490 c-757 -71 -1450 -164 -2080 -281 -400 -75 -359 -25 -349
-433 26 -1034 27 -1413 2 -1422 -57 -22 -136 9 -108 42 22 27 20 28 -20 7 -25
-14 -45 -32 -45 -41 0 -9 -21 -17 -47 -17 -36 0 -46 9 -39 35 7 27 -2 34 -42
29 -29 -3 -52 4 -52 16 0 12 -7 15 -15 7 -8 -9 1 -27 21 -42 23 -17 29 -31 15
-39 -12 -8 -15 -24 -7 -37 8 -14 0 -13 -20 3 -18 15 -46 23 -61 17 -16 -6 -36
-3 -47 8 -11 11 -33 7 -57 -10 -21 -16 -32 -36 -23 -45 9 -9 24 -4 33 11 9 14
20 19 26 9 5 -9 -16 -38 -48 -64 -47 -38 -57 -40 -57 -13 0 19 -9 27 -22 19
-12 -8 -30 -2 -40 13 -11 17 -18 19 -18 5 0 -13 -16 -21 -35 -18 -19 3 -23 1
-9 -4 15 -5 22 -21 16 -37 -8 -20 6 -28 48 -28 44 0 56 -8 47 -30 -18 -46 24
-35 58 15 l31 45 -11 -55 c-5 -31 -18 -61 -28 -67 -11 -7 -9 -23 4 -40 19 -22
17 -28 -8 -28 -21 0 -28 -12 -21 -35 10 -30 7 -29 -20 4 -18 21 -32 32 -32 24
0 -8 -17 -5 -38 6 -24 13 -41 13 -45 1 -4 -10 -18 4 -31 33 -23 48 -21 51 24
42 91 -17 100 19 14 63 -111 57 -125 54 -112 -23 25 -150 26 -152 92 -159 48
-5 64 -16 66 -50 3 -42 1 -43 -66 -15 -61 26 -67 25 -56 -3 7 -17 12 -49 12
-71 0 -22 8 -35 17 -29 9 6 47 15 85 22 37 6 84 16 103 22 23 7 35 0 35 -20 0
-25 10 -27 53 -11 29 11 54 18 56 15 13 -20 57 -197 72 -291 21 -128 37 -144
153 -145 154 0 179 20 195 163 22 198 34 240 62 229 15 -5 30 1 34 14 6 18 17
17 42 -3 18 -16 59 -24 92 -19 33 5 63 1 66 -9 9 -28 111 5 124 40 7 17 6 36
-1 43 -8 7 -18 0 -23 -14 -6 -19 -16 -20 -35 -4 -14 12 -33 20 -43 18 -42 -7
-58 5 -58 42 0 27 9 37 28 30 19 -7 24 0 15 21 -6 18 -12 47 -13 66 0 30 -2
30 -21 -2 -25 -43 -65 -45 -105 -5 -33 33 -31 37 -33 -106 0 -25 -8 -42 -17
-36 -9 5 -15 48 -13 94 3 64 -2 76 -18 54 -28 -37 -92 -38 -92 -1 0 15 -9 22
-20 15 -11 -7 -20 -4 -20 6 0 11 28 25 62 31 50 10 61 21 52 53 -13 49 3 51
38 5 25 -33 27 -33 27 -1 1 23 12 31 31 23 16 -6 25 -19 19 -29 -6 -10 4 -12
23 -4 26 9 32 5 23 -17 -6 -17 -3 -43 7 -59 13 -21 17 -17 18 18 0 36 8 44 37
35 21 -7 109 6 195 27 87 22 185 45 218 53 59 13 -183 116 -375 160 -98 22
-58 -24 68 -79 125 -54 151 -95 35 -54 -121 42 -157 30 -88 -30 58 -49 59 -51
10 -38 -27 8 -66 15 -85 16 -19 2 -35 10 -35 19 0 9 -11 15 -25 13 -14 -2 -38
1 -55 8 -26 11 -111 27 -169 32 -10 1 -8 13 5 26 17 17 17 30 1 50 -31 37 -5
32 42 -8 21 -18 34 -41 29 -50 -19 -30 11 -17 50 22 27 27 32 44 16 60 -15 15
-1 21 47 19 38 0 127 17 198 40 71 23 134 35 140 27 6 -8 52 -34 101 -59 59
-29 76 -45 50 -45 -25 -1 -2 -20 60 -50 87 -43 110 -46 180 -28 142 36 150 40
150 72 0 24 -6 26 -29 7 -24 -20 -509 109 -486 130 8 7 550 156 825 226 398
102 1514 323 1631 323 6 0 23 254 36 565 13 311 29 662 35 780 l11 215 -76 -2
c-42 -2 -297 -23 -567 -48z m324 -111 c102 12 200 27 218 32 17 5 31 -2 31
-16 0 -17 -37 -27 -111 -30 -142 -7 -222 -23 -222 -46 0 -10 -29 -27 -65 -38
-69 -22 117 -13 260 12 41 7 65 3 65 -11 0 -12 -25 -23 -55 -23 -158 -5 -318
-25 -340 -44 -40 -33 -53 -2 -26 63 32 76 13 106 -66 101 -104 -5 -129 6 -43
19 52 9 95 4 124 -14 36 -22 79 -23 230 -5z m-442 -4 c21 -309 17 -379 -23
-390 -25 -6 -37 -21 -30 -38 7 -21 2 -24 -21 -11 -35 20 -399 -26 -454 -57
-33 -19 -34 -17 -11 25 33 60 39 100 13 84 -19 -12 -55 24 -56 57 0 8 47 15
105 15 75 -1 96 -6 75 -20 -21 -14 4 -19 85 -17 63 1 126 -7 140 -19 17 -14
43 -13 83 4 73 30 100 284 28 265 -20 -5 -36 -2 -36 7 0 8 19 20 42 26 47 13
34 53 -18 55 -28 2 -27 5 6 19 57 24 70 23 72 -5z m-128 -88 c8 -22 -147 -46
-194 -30 -42 14 -17 41 45 49 96 12 141 7 149 -19z m-787 -704 c-4 -381 -12
-730 -18 -776 l-11 -82 -168 -36 -168 -35 -146 71 c-373 180 -520 239 -572
229 -30 -6 -89 -17 -132 -25 -57 -11 -74 -9 -64 8 8 13 5 23 -7 23 -32 0 -25
60 9 73 16 6 24 20 18 30 -7 11 -22 16 -35 11 -14 -6 -25 18 -27 64 -2 39 -9
92 -15 117 -19 76 17 52 178 -117 130 -136 162 -160 202 -149 45 11 36 22
-106 144 -187 161 -294 274 -267 283 11 4 15 20 9 36 -8 19 -2 25 18 17 17 -6
35 3 42 21 7 18 4 27 -6 21 -18 -12 -52 64 -36 81 5 4 81 -48 169 -117 89 -69
230 -178 314 -243 84 -65 148 -122 143 -128 -6 -5 -26 3 -46 18 -33 26 -33 25
-5 -12 42 -56 67 -71 81 -49 19 31 160 28 273 -5 58 -16 99 -21 92 -10 -6 10
1 15 16 9 33 -12 172 60 186 97 17 45 -122 111 -194 92 -64 -17 -64 -17 -18
-41 25 -14 40 -33 34 -43 -6 -10 16 -9 48 2 102 36 135 15 62 -39 -47 -35 -90
-47 -173 -47 -136 -2 -182 33 -73 54 l76 15 -70 26 c-92 34 -100 34 -100 -1 0
-24 -22 -20 -112 20 -62 28 -121 50 -131 50 -55 0 -529 386 -569 463 -41 81
-28 88 72 37 46 -24 89 -38 95 -31 7 6 2 11 -10 11 -61 0 -147 104 -111 132
34 26 34 27 -4 16 -32 -9 -34 -7 -11 9 22 16 67 -6 190 -92 723 -507 833 -574
830 -510 0 20 -649 485 -677 485 -12 0 -22 9 -22 20 0 11 -11 20 -25 21 -14 0
-61 27 -105 61 l-80 60 95 -11 96 -11 -14 54 c-13 52 -8 50 97 -40 61 -52 120
-94 132 -94 11 0 63 -47 115 -105 52 -58 88 -91 80 -75 -8 17 6 3 31 -30 70
-91 199 -212 216 -201 8 5 49 -18 90 -52 41 -34 78 -58 82 -54 4 4 -60 57
-142 117 -83 60 -170 132 -194 159 -28 32 -12 24 46 -22 130 -103 313 -217
349 -217 51 0 -2 66 -111 137 -108 71 -134 79 -98 28 14 -19 -22 13 -79 72
-101 106 -125 167 -36 91 25 -21 2 9 -50 66 -153 168 -133 175 125 41 l150
-78 -124 126 c-109 112 -183 227 -159 251 13 13 113 -114 113 -144 0 -27 199
-216 266 -253 81 -44 5 96 -114 210 -82 79 -98 100 -48 65 102 -72 110 -65 35
29 -94 118 -59 117 48 -2 89 -98 92 -100 89 -45 -1 31 4 71 12 89 9 21 -2 51
-32 85 l-46 52 -350 -59 c-192 -33 -460 -82 -594 -110 -134 -28 -249 -51 -255
-51 -6 0 -11 26 -11 57 l0 56 335 64 c409 77 669 123 775 137 44 6 82 16 85
24 3 7 40 10 82 6 l78 -8 -8 -693z m464 692 c109 12 121 -24 14 -42 -115 -19
-125 -16 -123 32 0 25 5 35 10 23 6 -15 43 -19 99 -13z m529 -46 c0 -34 8 -46
23 -37 14 9 18 5 10 -8 -14 -22 34 -20 242 7 54 7 85 4 85 -10 0 -12 -42 -21
-99 -21 -102 0 -151 -28 -81 -46 22 -6 40 -3 40 6 0 10 28 14 63 9 73 -9 101
-28 45 -30 -36 -2 -36 -3 2 -19 27 -12 30 -18 10 -19 -25 -1 -26 -4 -2 -19 17
-11 48 -9 79 5 39 18 52 17 59 -4 7 -23 12 -23 26 0 14 21 17 19 18 -8 0 -26
-16 -35 -65 -35 -36 0 -78 -10 -95 -22 -23 -16 -10 -19 48 -10 43 6 70 3 60
-6 -33 -30 -253 -46 -236 -17 11 20 9 20 -13 0 -44 -41 -74 -29 -97 38 -28 80
-29 76 18 67 22 -4 40 2 40 13 0 12 -13 16 -29 10 -17 -6 -37 0 -45 15 -34 56
-106 78 -106 32 0 -24 -9 -37 -19 -30 -24 14 -22 190 2 190 9 0 17 -23 17 -51z
m-120 14 c0 -17 -282 -65 -298 -50 -18 15 12 23 126 35 65 6 123 16 128 22 17
16 44 12 44 -7z m-620 -67 c0 -9 -38 -16 -85 -16 -51 0 -75 7 -60 17 33 21
145 20 145 -1z m240 4 c-72 -23 -140 -23 -140 0 0 11 43 19 95 18 77 -2 86 -5
45 -18z m60 -44 c-49 -10 -119 -26 -153 -35 -50 -13 -62 -10 -54 10 10 25 95
41 237 43 43 1 34 -4 -30 -18z m1000 -15 c-51 -30 -180 -48 -180 -25 0 25 46
39 140 41 49 1 61 -3 40 -16z m-1415 -77 c-25 -4 -45 -16 -45 -28 0 -19 53
-13 131 17 23 9 32 5 26 -13 -5 -15 -22 -29 -38 -33 -16 -3 -52 -12 -81 -18
-41 -10 -51 -5 -52 24 -1 54 32 87 70 71 28 -11 26 -15 -11 -20z m898 -111
c34 -38 18 -121 -29 -155 -10 -7 -8 -45 3 -85 11 -41 13 -69 4 -63 -18 11 -40
-57 -41 -125 0 -51 37 -56 169 -26 44 11 84 14 90 9 20 -20 -51 -47 -124 -48
-78 0 -87 -15 -55 -90 16 -38 17 -37 19 6 0 28 10 41 22 33 12 -7 17 -25 11
-40 -6 -17 0 -23 19 -16 26 10 38 -13 31 -58 -1 -8 9 -15 23 -15 17 -1 15 -7
-5 -20 -26 -17 -25 -19 5 -20 19 0 35 -13 35 -30 0 -17 11 -28 25 -25 29 6 63
73 57 112 -3 15 4 21 15 15 11 -7 23 7 27 32 6 44 7 43 64 -14 32 -32 48 -61
36 -65 -12 -4 -17 -20 -11 -34 6 -16 -8 -33 -34 -41 -35 -11 -38 -18 -17 -32
19 -12 0 -17 -56 -18 -46 0 -89 8 -95 19 -19 31 -343 -4 -421 -45 -41 -21
-266 -74 -343 -80 -24 -2 -40 -10 -35 -17 8 -13 -91 -37 -154 -37 -25 0 -33
10 -25 31 7 17 24 27 38 21 15 -5 29 -2 33 8 3 10 38 23 76 29 39 5 156 28
260 51 105 23 237 50 295 62 58 12 100 29 94 39 -6 11 -2 19 10 19 11 0 21 10
21 21 0 12 -16 18 -35 14 -19 -4 -32 -20 -29 -36 5 -20 -4 -18 -32 8 -31 27
-42 29 -50 9 -8 -17 -38 4 -92 62 -44 49 -76 95 -71 104 5 8 -8 21 -29 27 -24
8 -35 25 -28 49 8 33 0 35 -87 19 -214 -36 -282 -41 -294 -22 -7 11 25 30 72
42 51 13 88 14 91 3 7 -20 124 -4 151 21 10 9 30 11 45 5 16 -6 28 0 28 13 0
13 -9 18 -19 12 -10 -7 -28 5 -39 26 -16 30 -11 42 29 63 37 21 43 33 26 53
-25 30 -97 37 -97 9 0 -10 -31 -21 -69 -26 -98 -11 -110 36 -15 52 284 47 377
94 279 140 -14 7 -1 8 28 2 32 -6 62 2 77 20 14 17 17 30 8 30 -9 0 -5 11 8
24 13 13 25 42 25 65 2 37 4 36 25 -9 13 -27 39 -67 57 -87z m-1500 12 c103
-106 53 -107 -100 -3 -53 37 -101 55 -125 49 -21 -6 -56 -16 -78 -22 -22 -7
-40 -3 -40 7 0 19 136 56 213 58 26 1 78 -35 130 -89z m-272 -63 c-6 -10 3
-29 19 -42 25 -21 30 -18 31 13 0 40 57 -41 58 -83 0 -11 -9 -4 -21 15 -11 20
-28 31 -36 26 -30 -18 -108 85 -93 123 13 34 15 34 33 1 11 -19 15 -43 9 -53z
m2109 15 c0 -9 -43 -16 -95 -14 -90 2 -92 3 -25 15 97 18 120 18 120 -1z
m-1242 -55 c15 -10 21 -28 13 -40 -7 -12 -4 -22 8 -22 11 0 21 -8 21 -17 0
-10 -22 -13 -50 -8 -27 5 -50 18 -50 29 0 10 9 13 20 6 11 -7 20 2 20 20 0 18
-9 27 -20 20 -11 -7 -20 -3 -20 9 0 25 20 26 58 3z m362 -40 c0 -11 -9 -25
-20 -32 -11 -7 -20 -1 -20 14 -1 17 -6 19 -15 5 -27 -40 -77 -46 -98 -12 -18
29 -9 34 66 39 48 3 87 -3 87 -14z m921 -34 c-117 -21 -153 -21 -165 -2 -10
15 -15 7 -16 -22 0 -26 -9 -41 -20 -34 -11 7 -20 3 -20 -7 0 -11 -16 -25 -35
-31 -36 -11 121 2 273 22 57 8 84 5 76 -8 -7 -11 -85 -26 -173 -34 -160 -13
-261 -42 -261 -76 0 -9 20 -12 45 -6 105 25 246 46 253 38 17 -16 -14 -29 -90
-38 -180 -22 -239 -37 -261 -68 -21 -28 -24 -28 -21 8 2 22 24 62 49 90 42 46
54 86 47 160 -2 25 36 30 233 32 l235 3 -149 -27z m-981 -67 c0 -29 -77 -38
-88 -10 -5 15 5 30 24 34 39 9 64 0 64 -24z m120 -38 c0 -18 -180 -50 -195
-35 -5 5 30 18 78 28 117 26 117 26 117 7z m-394 -30 c6 6 23 4 37 -5 19 -12
12 -20 -23 -29 -50 -13 -100 10 -100 44 0 11 16 10 37 -2 21 -11 43 -15 49 -8z
m130 -58 c-1 -46 -7 -72 -12 -57 -6 18 -13 20 -23 4 -7 -12 -37 -24 -66 -26
-29 -3 -48 -11 -43 -19 5 -9 22 -11 37 -5 15 6 33 1 40 -11 17 -26 -87 -28
-129 -1 -26 16 -24 23 10 49 22 18 28 29 13 26 -16 -3 -32 7 -38 22 -7 20 5
19 52 -6 76 -39 143 -9 143 64 0 25 4 45 10 45 5 0 8 -38 6 -85z m-167 -177
c-6 -10 9 -19 35 -21 l46 -2 -45 -9 c-44 -9 -114 38 -92 60 17 18 68 -8 56
-28z m1385 10 c-4 -5 -45 -13 -91 -17 -46 -5 -102 -14 -125 -22 -30 -9 -40 -6
-34 13 5 14 50 28 107 33 54 4 101 11 106 15 5 5 17 4 27 -3 10 -6 15 -15 10
-19z m-971 -31 c59 11 111 16 115 11 5 -4 -2 -8 -15 -8 -13 0 -23 -9 -23 -21
0 -11 11 -19 25 -18 75 10 145 -4 105 -21 -62 -27 -170 -23 -172 5 0 14 -10 0
-21 -30 -11 -30 -35 -55 -54 -55 -29 1 -29 3 -3 22 23 16 19 17 -18 7 -41 -12
-46 -8 -37 29 6 23 3 42 -7 42 -10 0 -18 -15 -18 -33 0 -28 -9 -26 -50 13 -27
26 -50 54 -50 62 0 29 70 31 93 3 19 -22 45 -24 130 -8z m226 -170 c-20 -15
-55 -28 -78 -30 -40 -3 -71 -9 -91 -16 -18 -8 -89 -18 -176 -27 -47 -5 -92
-15 -98 -22 -29 -29 -66 -8 -66 37 0 52 30 84 49 53 8 -13 33 -12 70 1 41 14
71 13 102 -4 29 -15 48 -16 57 -3 16 25 180 59 230 47 37 -9 37 -10 1 -36z
m-360 -124 c-29 -27 -129 -46 -129 -25 0 11 20 23 45 28 81 16 104 15 84 -3z
m-209 -64 c0 -20 -10 -43 -22 -50 -16 -10 -15 -19 3 -29 40 -25 8 -78 -40 -66
-44 11 -53 36 -21 56 11 7 20 43 20 81 0 52 7 65 30 56 17 -6 30 -28 30 -48z
m671 23 c-6 -10 -1 -22 11 -26 12 -4 0 -18 -28 -30 -43 -20 -51 -18 -60 15 -6
22 -4 35 4 30 8 -4 27 0 43 10 37 23 44 24 30 1z m-1811 -154 c44 -18 80 -40
80 -50 0 -10 9 -18 19 -18 11 0 120 -39 243 -87 l224 -88 -72 -24 c-74 -24
-243 20 -418 111 -96 50 -173 71 -316 85 l-130 14 110 43 c134 53 158 55 260
14z m-70 -139 c55 -16 136 -47 181 -67 44 -21 118 -48 165 -61 103 -28 104
-34 11 -59 -64 -18 -92 -13 -211 40 -96 42 -176 62 -267 66 -120 5 -187 27
-139 45 11 4 43 20 70 35 66 37 73 37 190 1z m50 -145 c39 -11 97 -30 130 -44
l60 -24 -79 -29 c-50 -18 -124 -25 -200 -19 -67 5 -98 5 -71 -1 84 -18 85 -39
2 -72 -83 -32 -135 0 -83 52 31 31 26 47 -19 59 -56 14 -50 48 15 81 56 30
124 29 245 -3z m-505 -311 c0 -37 -9 -46 -37 -38 -40 10 -42 4 -42 -115 0 -45
-3 -54 -9 -25 -5 25 -17 45 -26 45 -28 0 -40 -57 -15 -66 18 -7 17 -16 -3 -36
-22 -22 -30 -22 -37 -3 -5 14 -24 25 -43 26 -28 0 -28 4 6 30 35 27 -53 45
-152 32 -17 -2 -11 39 11 74 11 18 37 23 75 15 41 -8 55 -5 45 11 -8 14 -5 18
7 10 12 -7 17 -31 11 -53 -6 -24 -1 -40 14 -40 13 0 19 13 13 29 -13 33 57 91
109 91 19 0 39 14 45 30 17 44 28 37 28 -17z m78 -363 c-7 -19 0 -30 19 -30
27 0 28 -3 1 -30 -41 -41 -66 -38 -79 10 -6 25 2 47 23 59 45 27 49 26 36 -9z
m-264 -61 c17 -18 31 -24 31 -15 0 10 18 17 40 17 22 0 40 -7 40 -15 0 -9 -15
-16 -32 -16 -27 0 -28 -5 -8 -30 20 -24 19 -30 -6 -30 -17 0 -35 11 -41 25 -6
15 -10 11 -11 -10 -2 -42 -33 -46 -49 -6 -6 17 -29 26 -52 21 -52 -10 -58 63
-6 76 59 16 61 15 94 -17z"/>
<path d="M1717 4680 c69 -46 130 -79 135 -75 13 13 -157 128 -212 144 -27 7 7
-24 77 -69z"/>
<path d="M2320 4744 c0 -34 289 -284 328 -284 8 0 9 18 2 40 -8 26 -4 40 13
40 41 0 -40 70 -172 149 -116 69 -171 87 -171 55z"/>
<path d="M1470 4460 c-6 -10 27 -53 73 -94 167 -149 331 -317 343 -349 12 -34
120 -97 167 -97 15 0 27 -7 27 -15 0 -18 156 -84 251 -105 38 -9 69 -9 69 0 0
8 -25 20 -55 26 -75 16 -425 178 -425 198 0 9 19 16 41 16 41 0 41 1 5 47 -99
126 -475 408 -496 373z"/>
<path d="M1914 4419 c6 -22 28 -49 49 -61 83 -44 426 -175 435 -166 6 5 -10
15 -34 21 -24 6 -44 21 -44 31 0 11 14 15 30 9 45 -17 36 2 -12 28 -33 18 -39
18 -28 -2 10 -16 6 -21 -12 -14 -15 5 -26 21 -23 34 4 13 -3 19 -13 12 -10 -6
-89 25 -174 69 -178 92 -188 94 -174 39z"/>
<path d="M2111 4018 c47 -75 365 -153 399 -98 8 12 -32 20 -104 20 -87 0 -138
13 -203 50 -97 56 -112 60 -92 28z"/>
<path d="M3440 4738 c0 -12 14 -17 31 -10 18 6 26 3 19 -8 -18 -29 22 -24 47
6 16 20 8 27 -38 30 -33 3 -59 -5 -59 -18z"/>
<path d="M380 5409 c-16 -4 -109 -17 -205 -30 l-175 -23 0 -78 c0 -73 4 -78
47 -67 68 17 90 -66 31 -116 l-42 -34 53 -24 c84 -39 125 14 77 99 -33 57 -33
65 -5 94 40 40 97 20 107 -37 5 -24 18 -91 30 -150 45 -220 28 -289 -60 -242
-32 17 -47 13 -77 -25 -50 -60 -22 -87 60 -58 169 58 152 -56 -21 -147 -121
-64 -139 -71 -170 -71 -20 0 -30 -20 -30 -60 0 -66 22 -74 114 -38 66 25 332
29 370 5 14 -9 80 -21 146 -27 81 -7 118 -18 115 -35 -3 -15 17 -25 54 -25 32
0 64 -8 70 -18 29 -47 -231 -56 -376 -12 -94 28 -97 28 -87 -10 13 -51 -103
-76 -196 -43 -34 13 -82 23 -105 23 -24 0 -48 9 -55 20 -7 11 -22 20 -33 20
-11 0 8 -23 42 -52 42 -36 76 -49 107 -41 43 11 43 10 5 -18 -21 -16 -68 -29
-105 -29 -58 0 -66 -6 -66 -52 0 -44 7 -51 45 -42 171 42 202 41 190 -2 -15
-60 121 -79 157 -21 16 26 -46 80 -84 73 -19 -3 -37 4 -41 16 -5 12 5 21 22
21 17 0 67 13 112 27 64 22 96 22 143 5 45 -17 88 -18 160 -2 55 12 207 18
338 14 l238 -7 0 127 c0 111 -4 125 -30 103 -16 -14 -30 -38 -30 -55 0 -18
-12 -25 -30 -18 -18 7 -30 0 -30 -16 0 -49 -42 -57 -54 -12 -9 35 -21 41 -61
32 -55 -14 -185 59 -185 104 0 14 -5 25 -10 25 -6 0 -29 -11 -51 -25 -40 -25
-62 -11 -84 52 -3 9 -30 5 -60 -8 -81 -37 -128 5 -79 72 40 56 69 61 105 18
20 -25 29 -26 42 -5 27 43 19 59 -23 46 -31 -10 -40 -4 -40 30 0 34 9 40 40
30 28 -9 40 -4 40 19 0 35 35 40 79 12 20 -13 35 -11 45 5 27 43 17 55 -34 42
-42 -10 -48 -7 -37 21 8 21 27 31 50 24 23 -6 37 1 37 19 0 15 -17 28 -38 28
-76 0 -199 145 -206 242 l-6 88 -34 -62 c-39 -71 -4 -141 129 -252 67 -57 55
-70 -33 -37 -53 20 -55 -12 -4 -77 18 -23 13 -25 -23 -14 -28 9 -45 6 -45 -7
0 -25 -24 -8 -129 90 -72 68 -139 270 -94 285 15 5 13 17 -7 37 -73 72 -39 93
132 81 140 -10 160 -8 150 19 -7 17 -18 53 -24 79 -20 77 -127 107 -268 77z
m137 -651 c21 -34 20 -49 -4 -87 -22 -32 -24 -52 -9 -67 12 -12 15 -37 8 -56
-29 -76 -96 94 -78 200 12 74 40 78 83 10z"/>
<path d="M1013 5287 c-7 -8 -13 -30 -13 -50 0 -20 -13 -37 -29 -37 -26 0 -71
-57 -71 -89 0 -31 37 -5 49 34 13 43 14 43 29 6 12 -31 19 -22 38 50 22 89 22
110 -3 86z"/>
<path d="M927 5264 c-34 -22 -67 -97 -65 -148 1 -41 3 -40 19 11 9 32 32 74
51 95 36 40 33 66 -5 42z"/>
<path d="M728 5174 c-54 -64 -59 -95 -24 -130 33 -33 57 -30 43 6 -6 17 -2 30
9 30 18 0 104 119 104 143 0 32 -92 -2 -132 -49z"/>
<path d="M1035 5168 c-8 -8 -15 -32 -15 -53 0 -27 -10 -36 -30 -28 -48 19 -36
-43 14 -69 39 -21 40 -25 10 -48 -18 -13 -27 -30 -20 -37 7 -7 -3 -25 -23 -40
-31 -22 -32 -28 -7 -38 22 -8 43 18 76 92 59 134 98 179 131 152 17 -14 28
-11 36 11 20 51 -84 89 -117 43 -24 -33 -27 -33 -33 -3 -4 19 -14 27 -22 18z"/>
<path d="M480 5000 c84 -101 120 -133 120 -109 0 23 -85 138 -128 174 -79 65
-76 35 8 -65z"/>
<path d="M780 5062 c0 -8 11 -25 24 -38 19 -19 16 -24 -12 -24 -29 0 -23 -13
28 -60 35 -33 70 -60 78 -60 26 0 62 128 42 148 -13 13 -20 10 -21 -9 0 -24
-4 -24 -25 3 -25 33 -114 64 -114 40z"/>
<path d="M1090 4880 c35 -39 35 -40 -17 -40 -63 0 -68 -21 -12 -56 44 -27 33
-74 -13 -56 -37 14 -36 -17 2 -48 37 -31 37 -31 66 70 51 179 51 170 -8 170
-53 0 -53 -1 -18 -40z"/>
<path d="M4513 4815 c-18 -66 -16 -95 7 -95 11 0 20 13 20 29 0 16 20 48 44
70 l44 41 -52 0 c-36 0 -55 -13 -63 -45z"/>
<path d="M891 4701 c-6 -10 -3 -24 9 -31 31 -19 24 -50 -12 -50 -46 0 -22 -49
27 -56 35 -5 42 4 41 52 -1 32 4 69 12 81 9 14 -1 23 -26 23 -22 0 -45 -8 -51
-19z"/>
<path d="M1184 4676 c43 -64 76 -68 76 -8 0 43 -9 52 -52 52 -50 0 -51 -2 -24
-44z"/>
<path d="M1005 4616 c4 -14 30 -31 56 -38 27 -8 36 -16 19 -17 -20 -3 -15 -11
15 -25 25 -12 52 -15 60 -6 8 8 4 19 -10 24 -14 5 -25 18 -25 28 0 34 81 -22
100 -68 17 -42 18 -42 19 9 1 43 -13 58 -79 85 -96 38 -167 42 -155 8z"/>
<path d="M754 4567 c-19 -19 25 -67 61 -67 18 0 25 12 17 32 -7 17 -12 35 -12
40 0 13 -52 9 -66 -5z"/>
<path d="M915 4518 c-56 -32 -41 -58 35 -58 65 0 69 3 45 40 -28 45 -32 46
-80 18z"/>
<path d="M1112 4476 c-36 -20 -33 -24 30 -45 82 -28 87 -26 59 27 -25 48 -36
50 -89 18z"/>
<path d="M985 4427 c-39 -16 -8 -47 46 -47 34 0 45 8 36 30 -11 30 -36 35 -82
17z"/>
<path d="M4439 4311 c36 -37 92 -79 124 -92 51 -21 57 -34 57 -114 0 -68 7
-87 28 -79 15 6 36 2 47 -9 23 -23 145 -45 145 -27 0 21 -54 69 -68 59 -7 -5
-6 -1 3 9 38 44 145 47 145 4 0 -24 -13 -42 -30 -42 -45 0 -36 -54 10 -66 23
-6 39 -26 38 -47 -2 -34 -3 -34 -12 -2 -11 43 -77 46 -93 4 -9 -21 4 -33 44
-41 76 -16 75 -70 -1 -64 -43 4 -60 17 -69 55 -18 75 -30 89 -49 58 -33 -51
-18 -92 42 -117 33 -14 60 -38 60 -55 0 -22 13 -18 47 17 54 54 87 167 54 187
-25 16 -28 111 -3 111 10 0 23 -15 30 -32 10 -26 18 -28 42 -8 24 20 30 19 30
-6 0 -30 31 -35 71 -10 12 7 22 -5 24 -28 4 -52 12 -60 52 -44 18 7 27 22 20
35 -9 15 -4 15 13 -1 21 -20 22 -30 1 -55 -18 -21 -19 -31 -3 -31 36 0 25 -96
-13 -118 -33 -18 -33 -20 0 -33 19 -7 30 -21 24 -31 -7 -10 -20 -13 -30 -7
-11 6 -19 2 -19 -10 0 -11 10 -21 22 -21 14 0 18 -19 10 -50 -7 -27 -5 -50 5
-50 33 0 43 -60 18 -100 -37 -60 -69 -63 -129 -13 -112 92 -370 169 -486 146
-44 -9 -59 -2 -77 39 -13 28 -32 45 -43 38 -24 -15 -25 35 -2 135 13 53 11 75
-5 76 -13 1 -5 9 17 17 32 13 25 18 -40 30 -44 8 -96 19 -115 24 -31 10 -35
-7 -35 -168 l0 -180 70 -13 c52 -9 70 -23 70 -52 0 -27 14 -39 46 -39 55 0 94
-35 94 -83 0 -19 16 -39 35 -44 19 -6 102 -30 185 -54 115 -33 178 -41 268
-31 84 9 149 2 225 -22 59 -18 112 -27 120 -20 13 14 19 889 5 903 -12 12
-1004 231 -1047 231 -33 0 -29 -10 28 -69z m323 -791 c10 0 18 -10 18 -21 0
-31 -85 -14 -96 19 -7 20 1 24 25 15 19 -7 43 -13 53 -13z"/>
<path d="M574 4025 c-16 -82 -5 -85 266 -54 138 15 259 29 270 30 108 9 -121
38 -269 34 -135 -3 -204 3 -225 20 -27 22 -33 18 -42 -30z"/>
<path d="M0 3882 c0 -45 5 -47 93 -35 51 7 118 13 150 13 73 0 73 28 0 59
-100 41 -243 20 -243 -37z"/>
<path d="M1168 3841 c-57 -31 -113 -59 -125 -63 -23 -8 16 -304 43 -330 11
-11 151 29 177 51 16 13 33 402 18 399 -6 -1 -57 -27 -113 -57z"/>
<path d="M720 3687 c-104 -28 -213 -56 -241 -64 l-52 -13 40 -184 c21 -102 47
-180 57 -173 10 6 14 24 8 40 -13 32 65 69 150 71 41 2 51 10 43 39 -11 43 15
49 52 12 20 -20 23 -18 12 10 -9 25 -3 35 20 35 22 0 28 -9 18 -25 -9 -14 9
-9 39 10 44 29 54 31 54 7 0 -16 -14 -33 -30 -38 -22 -7 -20 -9 5 -7 20 2 38
23 41 49 4 26 16 39 29 31 15 -9 17 11 8 65 -7 43 -13 103 -13 133 0 65 4 65
-240 2z m10 -78 c-44 -14 -111 -26 -150 -25 l-70 0 90 26 c129 37 243 37 130
-1z"/>
<path d="M175 3583 c-212 -37 -235 -74 -33 -54 141 14 180 -10 63 -38 -218
-53 -205 -43 -205 -152 l0 -100 72 31 c88 36 134 37 234 1 l76 -27 -10 53
c-30 153 -35 243 -14 243 12 0 22 18 22 40 0 22 -7 39 -15 37 -8 -1 -94 -17
-190 -34z"/>
<path d="M3061 3546 c-26 -26 -53 -39 -60 -29 -6 9 -47 23 -91 30 -44 7 -102
18 -130 23 -27 6 -39 5 -25 -1 14 -7 21 -20 15 -29 -6 -9 26 -45 71 -81 l82
-64 98 47 c94 46 141 107 106 136 -9 8 -39 -6 -66 -32z"/>
<path d="M4085 3583 c-28 -17 -12 -263 17 -263 36 0 76 86 57 122 -30 56 -26
58 108 58 150 0 172 14 98 63 -57 38 -232 51 -280 20z"/>
<path d="M5500 3590 c0 -5 34 -27 76 -48 149 -76 154 -124 18 -177 l-64 -26
68 11 c146 22 162 101 39 190 -74 54 -137 77 -137 50z"/>
<path d="M2507 3515 c-20 -31 -20 -36 -24 -190 -3 -123 -31 -168 -50 -80 -6
30 -8 25 -6 -15 3 -63 31 -76 103 -45 36 15 40 36 40 186 0 164 -21 212 -63
144z"/>
<path d="M2668 3485 c-5 -19 -23 -61 -40 -93 -39 -76 -39 -75 123 -34 l139 35
-61 32 c-34 18 -74 46 -88 64 -34 41 -60 39 -73 -4z"/>
<path d="M2324 3423 l-47 -40 43 -23 c54 -29 65 -19 57 50 l-7 54 -46 -41z"/>
<path d="M3160 3297 c-589 -53 -1000 -238 -1000 -449 0 -48 0 -95 -1 -103 -1
-8 14 -18 32 -22 28 -6 31 8 19 101 -13 106 48 236 110 236 23 0 13 -50 -16
-86 -14 -16 45 5 130 47 274 136 774 214 1241 194 244 -11 245 -11 245 34 0
71 -302 90 -760 48z"/>
<path d="M402 3235 c-2 -64 -9 -75 -47 -75 -118 -1 -120 -47 -5 -86 80 -28
118 -74 61 -74 -18 0 -70 19 -115 42 -92 47 -224 67 -271 41 -23 -13 -9 -25
57 -48 208 -71 379 -164 391 -210 7 -26 16 -43 21 -38 8 8 -28 231 -73 443
l-16 80 -3 -75z"/>
<path d="M4060 3232 c0 -27 10 -56 22 -63 14 -9 15 -18 2 -26 -17 -11 305 -17
371 -7 30 5 35 144 5 144 -11 0 -20 -9 -20 -19 0 -61 -242 -66 -335 -8 -42 26
-45 25 -45 -21z"/>
<path d="M5777 3182 c14 -9 28 -24 30 -34 2 -10 11 -15 20 -12 10 3 28 -4 42
-15 14 -11 30 -15 37 -8 7 7 26 2 42 -11 18 -16 33 -17 41 -4 18 29 -82 88
-129 76 -22 -6 -40 -2 -40 8 0 10 -16 18 -35 18 -27 -1 -29 -5 -8 -18z"/>
<path d="M5340 3120 c-12 -22 -16 -40 -8 -40 7 0 -1 -21 -18 -47 -24 -36 -26
-53 -8 -71 17 -17 17 -32 -2 -62 -34 -56 -30 -120 7 -120 20 0 29 -13 25 -35
-4 -19 -23 -34 -42 -32 -19 1 -34 -5 -34 -15 0 -37 74 -16 116 32 24 28 35 50
24 50 -11 0 -20 14 -20 30 0 17 8 30 19 30 10 0 19 16 19 35 0 19 6 91 14 160
15 134 -39 184 -92 85z"/>
<path d="M3942 3101 c-20 -12 -21 -26 -3 -58 23 -45 53 -56 64 -25 4 10 20 4
36 -14 26 -28 26 -30 -5 -18 -23 8 -34 3 -34 -17 0 -42 83 -69 213 -69 95 0
109 5 99 33 -10 26 -7 28 15 9 23 -18 30 -13 38 28 11 57 8 59 -45 26 -31 -20
-44 -20 -64 0 -36 36 -50 30 -64 -27 -7 -28 -21 -46 -31 -39 -10 6 -3 38 15
71 41 71 12 104 -78 86 -29 -6 -70 -2 -92 10 -21 11 -50 13 -64 4z"/>
<path d="M3190 2893 c-511 -150 -535 -175 -261 -275 207 -75 174 -79 676 76
507 157 514 165 269 261 -209 82 -187 84 -684 -62z"/>
<path d="M0 2961 c0 -36 114 -110 170 -111 11 0 28 -19 39 -43 16 -37 34 -42
128 -40 129 4 159 42 49 62 -42 8 -98 27 -126 42 -204 112 -260 131 -260 90z"/>
<path d="M5926 2802 c-36 -49 -67 -94 -70 -101 -3 -7 -87 -44 -186 -82 -157
-60 -172 -70 -116 -75 37 -4 107 14 170 44 58 27 130 55 160 62 82 21 120 75
112 163 l-6 76 -64 -87z"/>
<path d="M4 2795 c5 -39 20 -46 103 -51 111 -7 111 20 -1 66 -95 40 -110 38
-102 -15z"/>
<path d="M0 2661 c0 -12 49 -49 110 -83 129 -72 150 -97 86 -100 -39 -2 -40
-4 -7 -12 21 -6 51 -23 66 -39 16 -15 62 -27 102 -26 40 1 98 -2 128 -8 83
-14 86 22 5 70 -120 70 -346 174 -356 164 -6 -6 -38 4 -72 22 -34 18 -62 23
-62 12z"/>
<path d="M5770 2540 c-22 -22 -108 -105 -190 -185 -83 -80 -203 -221 -268
-315 -108 -156 -180 -249 -144 -185 8 14 10 25 4 25 -6 0 -25 -28 -43 -62 -19
-37 -23 -56 -9 -48 28 17 25 10 -115 -230 -387 -668 -555 -777 -981 -638 -104
34 -64 40 45 7 110 -33 351 -39 351 -9 0 11 -41 30 -90 42 -50 13 -96 31 -102
40 -5 10 -25 18 -43 18 -18 0 -133 32 -254 72 -122 40 -238 76 -260 80 -65 12
-101 108 -41 108 17 0 30 9 30 20 0 11 31 20 70 20 84 0 170 67 170 134 0 25
-10 46 -21 46 -12 0 -16 -9 -9 -20 7 -11 3 -20 -9 -20 -27 0 -27 2 11 78 56
112 -28 72 -245 -116 -46 -40 -129 -106 -185 -148 -105 -79 -136 -154 -65
-154 21 0 135 -50 255 -110 288 -146 799 -310 1011 -325 195 -13 195 -12 -18
-171 -192 -144 -191 -144 -265 -1 -27 53 -61 108 -75 123 -14 15 -19 37 -12
49 8 12 4 15 -9 8 -12 -8 -31 3 -42 24 -31 58 -113 65 -159 15 -47 -53 -333
-688 -317 -705 34 -34 80 38 213 336 173 386 187 407 243 339 22 -27 32 -54
23 -60 -9 -7 -85 -120 -168 -252 -176 -280 -183 -290 -170 -290 6 0 89 117
185 260 173 256 252 320 192 154 -36 -101 -34 -174 5 -123 16 22 24 59 18 84
-18 73 27 52 81 -39 l50 -84 -122 -91 c-67 -50 -168 -125 -224 -166 -60 -44
-88 -75 -67 -75 18 0 122 66 229 147 108 82 202 145 209 141 6 -4 50 -70 95
-148 46 -77 92 -140 103 -140 30 0 25 10 -72 162 -50 78 -88 150 -85 159 14
42 327 274 339 252 11 -19 97 -516 97 -559 0 -8 18 -14 40 -14 44 0 43 24 -11
340 -30 179 -29 181 60 108 l70 -58 -12 -195 c-8 -135 -5 -195 10 -195 13 0
24 66 27 178 l6 179 138 -101 138 -101 -138 -72 c-103 -55 -127 -75 -95 -79
24 -3 87 21 142 55 55 33 108 61 118 61 43 0 128 -52 138 -85 7 -19 20 -35 30
-35 25 0 22 55 -9 139 l-25 69 212 108 c240 122 247 128 238 171 -7 31 -324
-136 -425 -224 -21 -19 -41 -24 -46 -13 -4 11 -64 141 -132 288 l-125 268 116
116 c175 175 217 284 235 606 20 351 180 932 262 948 41 7 119 -902 86 -992
-11 -30 -13 -81 -6 -114 20 -88 21 -310 1 -310 -9 0 -9 -52 0 -115 9 -63 12
-157 7 -209 -5 -52 0 -100 10 -106 13 -8 20 330 20 961 l0 973 -80 -14 c-53
-9 -80 -6 -80 8 0 33 -25 26 -70 -18z m-276 -882 c-13 -21 -29 -38 -36 -38 -8
0 -18 -22 -23 -50 -6 -33 0 -50 17 -50 28 0 37 -193 10 -230 -8 -11 -26 -58
-39 -105 -48 -167 -214 -284 -322 -226 -28 15 -40 9 -59 -32 -14 -31 -34 -47
-51 -40 -15 6 -33 -2 -39 -18 -12 -32 -221 -42 -240 -12 -6 10 29 60 78 112
50 53 90 104 90 116 0 25 95 115 121 115 10 0 19 17 19 39 0 21 9 44 20 51 12
7 16 20 11 28 -11 18 51 89 104 120 26 16 29 26 11 37 -18 12 -14 23 15 41 32
20 39 19 39 -6 0 -16 9 -30 20 -30 11 0 21 -16 22 -35 1 -19 11 3 21 50 15 64
29 85 58 85 22 0 39 10 39 21 0 12 -8 16 -19 10 -10 -6 -5 14 10 45 24 48 38
56 88 48 52 -7 56 -13 35 -46z m-2005 -413 c-50 -76 -89 -112 -104 -97 -11 11
110 152 131 152 5 0 -8 -25 -27 -55z m1768 -550 c14 -47 75 -185 135 -307 105
-217 128 -283 89 -259 -11 7 -15 25 -9 40 6 16 -1 26 -18 24 -16 -2 -97 55
-180 127 -150 129 -151 131 -153 230 -2 143 -40 193 -41 53 l0 -106 -85 65
-85 65 90 -96 c97 -103 92 -109 -23 -32 -121 82 -135 174 -30 190 46 7 119 29
163 50 112 53 117 51 147 -44z"/>
<path d="M1691 2481 c-7 -10 -49 -16 -95 -12 -72 5 -79 2 -48 -20 23 -17 54
-20 92 -9 31 9 62 11 68 5 7 -6 12 3 12 22 0 37 -12 43 -29 14z"/>
<path d="M5370 2421 c-99 -41 -607 -230 -1130 -420 -522 -190 -1106 -403
-1297 -473 -485 -179 -493 -179 -901 35 -172 89 -523 270 -782 403 -259 132
-522 270 -586 307 -64 37 -120 67 -125 67 -5 0 -9 -83 -10 -185 0 -102 -8
-320 -18 -485 -17 -270 -64 -1074 -89 -1505 l-10 -165 99 0 99 0 0 75 c0 41
22 300 49 575 27 275 63 662 80 860 43 493 54 590 63 590 4 0 50 -26 103 -57
66 -40 1228 -664 1439 -772 2 -2 11 -288 18 -637 l14 -634 144 0 144 0 13 333
c7 183 13 470 13 637 l0 303 625 232 c603 224 785 286 680 232 -25 -13 -45
-35 -45 -50 0 -31 158 71 159 103 1 11 48 37 106 57 735 258 1167 444 1274
547 127 124 113 127 -129 27z m-2870 -1362 c0 -75 -9 -142 -20 -149 -12 -8
-20 22 -20 74 0 47 -6 120 -13 161 -11 65 -8 74 20 63 26 -10 33 -41 33 -149z
m-11 -384 c-7 -113 -16 -209 -21 -213 -11 -12 -6 384 6 403 23 39 26 0 15
-190z"/>
<path d="M25 2307 c-16 -7 -25 -52 -25 -126 l0 -115 191 27 c176 24 314 65
226 66 -18 1 -38 15 -45 32 -9 24 -20 26 -53 9 -23 -13 -52 -18 -65 -13 -18 7
-18 10 1 11 14 1 25 18 25 38 0 50 -182 100 -255 71z m144 -52 c-18 -46 -105
-74 -131 -43 -18 22 -16 29 10 31 58 4 68 7 84 22 24 24 48 17 37 -10z"/>
<path d="M3500 1837 c-206 -86 -875 -309 -980 -327 l-130 -23 85 -14 c65 -10
101 -4 159 27 42 22 91 40 111 40 20 0 51 9 70 20 19 11 201 79 403 150 203
71 373 134 379 140 17 17 -44 9 -97 -13z"/>
<path d="M4280 1785 l-70 -34 220 -12 c121 -7 304 -29 407 -48 158 -30 190
-32 205 -8 47 75 -630 167 -762 102z"/>
<path d="M5800 1670 c-81 -29 -111 -47 -80 -47 28 0 95 21 150 47 128 60 96
60 -70 0z"/>
<path d="M4410 1640 c-22 -9 -71 -13 -110 -9 -55 6 -60 5 -20 -7 56 -18 33
-41 -35 -35 -25 3 -45 -4 -45 -14 0 -9 -11 -11 -25 -3 -14 8 -5 -5 19 -29 24
-24 57 -43 72 -43 15 0 49 -18 74 -40 25 -22 74 -40 108 -40 34 0 107 -12 162
-27 159 -42 205 -27 168 54 -24 51 -78 74 -78 33 0 -22 -66 -28 -86 -8 -29 30
51 67 154 73 123 6 98 62 -38 83 -200 32 -254 32 -243 2 9 -23 -3 -29 -53 -27
-47 2 -52 5 -19 11 25 5 45 17 45 27 0 11 -2 18 -5 18 -3 -1 -23 -10 -45 -19z"/>
<path d="M1210 1508 c-77 -14 -179 -33 -227 -42 -121 -22 -104 -57 28 -53 124
3 130 -4 54 -67 -30 -24 -44 -45 -30 -45 14 -1 43 17 66 40 22 22 67 43 100
45 32 2 59 11 59 19 0 8 14 15 30 15 17 0 30 9 30 20 0 29 75 25 86 -5 7 -20
14 -20 36 0 14 14 41 25 60 25 28 0 58 37 58 72 0 16 -213 2 -350 -24z"/>
<path d="M220 1340 c-38 -8 -104 -21 -145 -29 -48 -8 -75 -24 -75 -43 0 -38
183 -21 305 27 134 53 79 82 -85 45z"/>
<path d="M1190 1268 c-60 -28 -59 -28 38 -19 54 5 105 16 115 26 28 28 -90 23
-153 -7z"/>
<path d="M4200 1270 c0 -19 12 -24 35 -16 31 12 32 9 8 -20 -25 -30 -19 -42
19 -37 7 0 61 -12 120 -28 121 -32 338 -39 338 -10 0 20 -172 89 -270 108
-158 31 -250 32 -250 3z"/>
<path d="M2842 1068 c2 -43 10 -105 19 -138 10 -38 12 -12 5 70 -13 146 -27
188 -24 68z"/>
<path d="M3140 1060 c0 -11 -11 -18 -24 -15 -13 3 -27 -10 -31 -27 -5 -25 5
-31 43 -23 30 5 45 19 39 35 -5 15 6 31 27 36 29 7 27 10 -9 12 -25 1 -45 -7
-45 -18z"/>
<path d="M120 1045 c0 -12 -18 -25 -41 -29 -47 -7 -55 -43 -11 -52 30 -7 84
70 64 91 -7 6 -12 2 -12 -10z"/>
<path d="M1933 987 c-21 -22 -15 -87 8 -87 12 0 16 -8 10 -18 -6 -10 -28 -14
-49 -8 -21 5 -57 -1 -80 -13 -53 -29 -55 1 -2 39 101 73 25 50 -99 -30 -76
-50 -147 -90 -157 -90 -11 0 -24 -18 -30 -40 -9 -37 -5 -36 49 10 33 27 73 50
89 50 15 0 28 7 28 15 0 8 56 17 123 19 130 5 173 25 145 69 -9 15 -14 43 -11
62 6 37 -2 44 -24 22z"/>
<path d="M1370 938 c-66 -20 -145 -38 -176 -38 -31 0 -75 -18 -98 -40 -24 -21
-84 -54 -134 -73 -112 -41 -185 -97 -91 -69 32 9 93 31 134 48 41 18 75 28 75
23 0 -5 43 13 95 40 52 26 147 64 211 83 63 18 120 42 126 51 14 23 -1 20
-142 -25z"/>
<path d="M3450 909 c-33 -16 -123 -57 -200 -91 -77 -35 -129 -67 -115 -72 29
-11 33 -59 6 -75 -11 -7 -31 11 -46 40 -25 46 -31 48 -54 20 -33 -39 -79 -40
-94 -1 -16 42 -126 -37 -118 -85 6 -37 29 -40 111 -17 l50 15 -50 -41 -50 -41
50 0 c110 -1 620 216 620 264 0 14 6 45 13 70 14 54 -29 59 -123 14z"/>
<path d="M75 854 c-41 -12 -75 -29 -75 -38 0 -19 82 -2 170 35 75 32 15 34
-95 3z"/>
<path d="M2935 789 c50 -63 56 -65 89 -35 42 38 -7 87 -96 97 l-47 5 54 -67z"/>
<path d="M3483 639 c-26 -21 -60 -39 -75 -39 -15 0 -28 -9 -28 -20 0 -48 132
8 146 62 6 21 9 38 7 37 -2 0 -24 -18 -50 -40z"/>
<path d="M1110 600 c-44 -21 -109 -44 -144 -51 -35 -7 -79 -30 -97 -50 -33
-36 -32 -37 34 -17 37 12 83 26 102 32 19 6 35 19 35 28 0 10 14 18 31 18 18
0 51 11 75 24 24 13 56 26 71 29 44 7 53 27 11 26 -21 0 -74 -18 -118 -39z"/>
<path d="M1655 584 c-19 -4 -35 -15 -35 -25 0 -11 -26 -19 -59 -19 -60 0 -96
-28 -63 -49 11 -6 24 -5 29 4 12 20 148 17 203 -4 24 -9 31 -8 16 3 -13 9 -31
35 -40 57 -10 24 -30 37 -51 33z"/>
<path d="M3280 530 c-27 -16 -67 -29 -88 -29 -21 -1 -33 -7 -26 -13 16 -16
194 36 194 56 0 23 -23 19 -80 -14z"/>
<path d="M3772 537 c-21 -13 -66 -30 -100 -38 -191 -47 -452 -181 -452 -231 0
-40 53 -35 84 9 36 51 113 88 151 74 20 -8 48 6 74 36 22 26 93 68 156 93 64
25 121 53 127 62 13 23 7 22 -40 -5z"/>
<path d="M1564 465 c24 -28 101 -21 111 10 5 14 -19 21 -62 19 -52 -3 -64 -10
-49 -29z"/>
<path d="M1220 390 c-38 -13 -79 -27 -90 -30 -11 -2 -41 -13 -66 -22 -26 -10
-55 -18 -65 -18 -11 0 -19 -10 -19 -22 0 -13 15 -17 35 -9 99 39 254 69 264
52 8 -12 23 -12 42 0 39 25 85 24 69 -1 -13 -22 15 -28 36 -8 49 49 -107 93
-206 58z"/>
<path d="M2928 393 c-35 -20 -38 -28 -16 -48 35 -33 48 -31 48 4 0 20 12 25
35 17 31 -12 32 -9 8 20 -16 19 -29 33 -30 32 -2 -1 -22 -12 -45 -25z"/>
<path d="M2150 340 c-7 -12 -21 -15 -31 -9 -11 6 -30 4 -44 -4 -14 -9 -34 -17
-45 -19 -65 -12 -130 -52 -130 -80 0 -24 -13 -30 -51 -23 -38 7 -49 3 -41 -18
7 -18 -5 -27 -40 -27 -32 0 -45 -8 -37 -22 10 -15 0 -18 -29 -9 -24 8 -42 7
-40 -2 7 -41 -4 -54 -22 -27 -17 26 -19 25 -20 -5 0 -46 33 -44 125 5 41 22
90 40 108 40 19 0 28 6 20 13 -7 7 5 26 27 42 23 15 36 35 30 45 -6 9 38 27
97 39 99 21 214 79 159 80 -13 1 -29 -8 -36 -19z"/>
<path d="M5965 217 c-12 -29 -43 -68 -69 -87 l-46 -34 69 12 c86 16 85 15 76
95 l-7 67 -23 -53z"/>
<path d="M180 225 c-16 -6 -34 -17 -40 -23 -5 -7 -35 -24 -65 -37 -30 -13 -55
-34 -55 -46 0 -50 236 40 255 96 9 26 -41 31 -95 10z"/>
<path d="M3050 189 c-44 -27 -95 -54 -114 -61 -19 -7 -40 -29 -47 -50 -7 -22
-22 -33 -35 -25 -16 9 -18 6 -4 -9 14 -15 81 -10 230 18 222 41 297 36 383
-24 57 -41 97 -49 97 -20 0 25 -41 53 -118 79 -37 13 -78 38 -92 56 -31 43
-132 56 -117 15 8 -20 2 -25 -21 -16 -19 7 -33 2 -34 -15 0 -15 -12 2 -25 37
l-23 65 -80 -50z"/>
<path d="M1425 87 c-95 -39 -11 -77 100 -46 41 12 75 29 75 40 0 29 -65 22
-109 -12 -21 -16 -48 -29 -59 -29 -11 0 -2 13 19 29 38 29 24 38 -26 18z"/>
<path d="M1223 39 l-67 -36 112 3 c62 1 112 10 112 20 0 10 -13 13 -30 7 -16
-7 -30 -4 -30 6 0 10 11 22 25 28 14 5 7 9 -15 9 -22 -1 -70 -17 -107 -37z"/>
<path d="M5690 60 c-7 -12 13 -20 49 -20 33 0 61 9 61 20 0 11 -22 20 -49 20
-27 0 -54 -9 -61 -20z"/>
<path d="M5927 51 c-23 -16 -47 -25 -53 -18 -6 6 -27 1 -47 -11 -29 -17 -15
-21 68 -19 88 3 105 9 105 40 0 45 -18 46 -73 8z"/>
</g>
</svg>
