<?xml version="1.0" standalone="no"?>
<!DOCTYPE svg PUBLIC "-//W3C//DTD SVG 20010904//EN"
 "http://www.w3.org/TR/2001/REC-SVG-20010904/DTD/svg10.dtd">
<svg version="1.0" xmlns="http://www.w3.org/2000/svg"
 width="300.000000pt" height="400.000000pt" viewBox="0 0 300.000000 400.000000"
 preserveAspectRatio="xMidYMid meet">
<metadata>
Created by potrace 1.10, written by Peter Selinger 2001-2011
</metadata>
<g transform="translate(0.000000,400.000000) scale(0.100000,-0.100000)"
fill="#202020" stroke="none">
<path d="M1550 3990 c-13 -9 -13 -10 0 -9 8 0 24 4 35 9 20 9 20 9 0 9 -11 0
-27 -4 -35 -9z"/>
<path d="M1585 3955 c-25 -12 -26 -14 -5 -9 28 7 60 23 45 23 -5 0 -23 -6 -40
-14z"/>
<path d="M1310 3860 c-11 -8 -7 -9 15 -4 37 8 45 14 19 14 -10 0 -26 -5 -34
-10z"/>
<path d="M825 3689 c-27 -10 -37 -17 -21 -14 31 7 97 33 81 33 -5 0 -32 -8
-60 -19z"/>
<path d="M1005 3695 c-39 -17 -21 -18 25 0 19 7 28 14 20 14 -8 0 -28 -6 -45
-14z"/>
<path d="M34 3667 c21 -19 53 -42 70 -52 44 -25 31 -14 -44 40 -46 33 -54 36
-26 12z"/>
<path d="M882 3653 c-24 -8 -41 -17 -39 -19 4 -5 97 26 97 32 0 6 -11 4 -58
-13z"/>
<path d="M355 3570 c-22 -11 -35 -19 -29 -20 15 0 84 29 84 35 0 9 -14 5 -55
-15z"/>
<path d="M229 3526 c13 -16 51 -41 51 -33 0 2 -15 14 -32 27 -21 15 -28 17
-19 6z"/>
<path d="M470 3515 c-19 -7 -28 -14 -20 -14 8 0 29 6 45 14 39 17 21 18 -25 0z"/>
<path d="M144 3180 c-116 -25 -114 -23 -69 -52 29 -19 45 -23 58 -16 15 7 17
4 17 -26 0 -19 -4 -38 -10 -41 -5 -3 -10 -1 -10 6 0 8 -3 9 -9 4 -12 -13 -31
-127 -58 -355 l-5 -45 -18 23 c-19 22 -19 23 -30 3 -8 -17 -7 -22 10 -31 12
-6 30 -8 42 -4 12 3 18 2 15 -3 -4 -6 22 -18 56 -27 34 -10 70 -22 79 -27 28
-14 48 -11 48 9 0 15 -2 15 -11 2 -7 -11 -9 6 -7 58 2 39 0 72 -4 72 -5 0 -8
-7 -8 -16 0 -9 -6 -14 -12 -11 -14 5 -12 40 3 45 5 2 9 8 9 13 0 6 -5 7 -10 4
-10 -6 -5 59 7 95 2 8 7 35 9 60 3 24 9 49 14 54 6 6 7 -16 3 -60 -3 -38 -3
-66 0 -63 12 10 17 150 6 143 -10 -6 -6 49 11 144 6 36 5 44 -11 52 -10 6 -21
9 -26 9 -4 -1 -45 -10 -89 -19z m92 -36 c3 -12 3 -37 0 -55 -3 -19 -6 -64 -7
-101 -1 -38 -6 -68 -10 -68 -4 0 -6 -8 -5 -17 2 -10 -1 -33 -6 -53 -4 -19 -11
-62 -14 -95 -7 -70 -21 -122 -36 -131 -7 -4 -8 -2 -4 4 4 7 3 12 -3 12 -6 0
-8 14 -5 33 4 26 3 28 -5 11 -5 -12 -14 -25 -20 -29 -21 -13 -23 27 -6 108 10
45 19 100 21 122 2 22 10 76 19 120 16 86 12 125 -13 125 -22 0 -7 12 31 25
47 16 57 14 63 -11z m-115 -180 c-6 -28 -9 -32 -10 -14 -1 30 11 79 16 64 2
-6 -1 -28 -6 -50z m-16 -142 c-15 -85 -25 -103 -25 -44 0 22 5 44 10 47 6 4 8
11 4 16 -8 14 6 73 16 62 4 -4 2 -41 -5 -81z m125 -142 c0 -5 -7 -10 -15 -10
-8 0 -15 5 -15 10 0 6 7 10 15 10 8 0 15 -4 15 -10z m-12 -42 c-5 -32 -28 -35
-28 -4 0 17 5 26 16 26 10 0 14 -7 12 -22z"/>
<path d="M154 2786 c-3 -8 -4 -27 -2 -43 3 -23 5 -20 9 15 5 43 2 53 -7 28z"/>
<path d="M2 3105 c-2 -23 4 -33 23 -42 14 -6 25 -7 25 -3 0 5 -9 11 -19 15
-12 3 -22 17 -24 33 -4 27 -4 26 -5 -3z"/>
<path d="M26 3112 c-3 -6 -1 -14 5 -17 15 -10 25 3 12 16 -7 7 -13 7 -17 1z"/>
<path d="M71 3040 c-6 -28 -11 -62 -11 -75 0 -18 -4 -23 -15 -19 -8 4 -15 2
-15 -3 0 -5 10 -9 23 -10 19 -2 22 2 23 40 0 23 4 59 8 80 4 20 5 37 2 37 -2
0 -9 -23 -15 -50z"/>
<path d="M10 2955 c0 -19 2 -35 4 -35 2 0 6 16 8 35 2 19 0 35 -4 35 -4 0 -8
-16 -8 -35z"/>
<path d="M372 2938 c-15 -15 -16 -32 -2 -23 6 4 10 -5 10 -19 0 -17 6 -26 15
-26 12 0 15 -8 11 -32 -3 -18 -8 -68 -12 -111 -5 -64 -9 -78 -22 -75 -8 2 -17
10 -19 18 -4 13 -3 13 6 0 9 -12 11 -9 11 15 1 17 3 64 5 105 3 56 2 67 -5 45
-9 -29 -9 -28 -5 8 2 20 0 37 -4 37 -4 0 -13 -55 -19 -122 -7 -68 -15 -141
-19 -164 -5 -36 -3 -42 16 -47 18 -4 21 -1 22 26 1 18 1 40 0 50 -2 10 4 17
14 17 13 0 15 -7 9 -35 -11 -62 -10 -68 17 -75 25 -7 26 -6 28 44 1 28 4 77 6
109 3 33 1 57 -5 57 -9 0 -15 -45 -11 -79 2 -7 -3 -10 -9 -6 -7 4 -9 22 -5 48
8 51 13 80 15 87 2 3 2 28 1 56 -2 29 2 55 8 59 6 3 11 15 11 26 0 14 -7 19
-28 19 -15 0 -33 -5 -40 -12z m45 -349 c-2 -22 -8 -43 -12 -47 -5 -4 -5 1 -2
10 3 9 1 19 -6 21 -9 3 -9 8 2 20 7 9 11 24 7 32 -3 10 -2 14 5 9 6 -3 9 -23
6 -45z"/>
<path d="M450 2910 c0 -11 5 -20 11 -20 5 0 7 5 4 10 -10 16 11 12 25 -5 8
-10 10 -30 4 -67 -4 -29 -9 -45 -12 -35 -2 9 -8 15 -13 12 -14 -10 -11 -52 7
-69 12 -13 14 -32 8 -113 -3 -54 -7 -102 -8 -107 0 -4 15 -14 34 -21 76 -27
80 -27 80 -10 0 9 -4 14 -9 11 -10 -7 -34 18 -25 27 3 3 13 3 22 0 12 -5 14
-1 9 18 -4 13 -7 34 -7 47 0 12 -5 22 -11 22 -6 0 -9 -6 -6 -14 3 -8 -1 -20
-9 -26 -8 -7 -14 -27 -14 -44 l-1 -31 -19 23 c-17 21 -18 36 -13 190 3 92 9
171 13 176 16 16 30 -5 30 -45 0 -24 4 -38 10 -34 6 3 10 -1 10 -9 0 -9 -4
-16 -9 -16 -5 0 -7 -9 -4 -20 9 -33 23 -23 23 18 1 20 3 53 6 73 5 33 3 36
-33 51 -21 9 -53 19 -70 22 -28 5 -33 2 -33 -14z"/>
<path d="M39 2918 c-1 -2 -2 -31 -3 -66 -1 -43 -7 -66 -16 -72 -13 -8 -12 -10
2 -10 12 0 19 12 24 45 3 25 11 45 16 45 5 0 2 7 -7 16 -9 9 -14 23 -11 30 4
11 0 21 -5 12z"/>
<path d="M272 2850 c0 -19 2 -27 5 -17 2 9 2 25 0 35 -3 9 -5 1 -5 -18z"/>
<path d="M542 2683 l-2 -73 23 11 c20 9 24 19 26 60 1 39 -2 49 -14 49 -11 0
-13 -4 -8 -12 14 -23 15 -61 2 -52 -9 5 -10 1 -7 -14 4 -12 2 -22 -2 -22 -5 0
-11 28 -13 63 l-3 62 -2 -72z"/>
<path d="M453 2605 c0 -22 2 -30 4 -17 2 12 2 30 0 40 -3 9 -5 -1 -4 -23z"/>
<path d="M0 2591 c0 -8 130 -44 136 -38 2 2 -27 13 -66 24 -38 12 -70 18 -70
14z"/>
<path d="M446 2543 c-4 -9 -2 -21 4 -27 7 -7 10 -2 10 17 0 31 -5 34 -14 10z"/>
<path d="M230 2521 c8 -5 33 -12 55 -15 l40 -6 -45 15 c-50 16 -73 19 -50 6z"/>
<path d="M320 2490 c-8 -5 -37 -11 -65 -12 -48 -1 -48 -2 -10 -5 56 -6 133 6
114 18 -18 11 -21 11 -39 -1z"/>
<path d="M50 2473 c8 -3 21 -13 28 -22 11 -14 12 -14 10 4 -2 13 -12 21 -28
22 -15 2 -19 0 -10 -4z"/>
<path d="M400 2471 c0 -5 14 -11 31 -15 49 -10 57 -6 19 9 -43 17 -50 17 -50
6z"/>
<path d="M72 2400 c0 -19 2 -27 5 -17 2 9 2 25 0 35 -3 9 -5 1 -5 -18z"/>
<path d="M510 2420 l-55 -7 59 -1 c48 -2 57 -5 52 -18 -6 -15 4 -13 32 9 11 8
11 12 0 18 -7 5 -17 8 -23 7 -5 -1 -35 -4 -65 -8z"/>
<path d="M375 2409 c-37 -6 -36 -6 18 -8 31 0 57 1 57 3 0 8 -37 11 -75 5z"/>
<path d="M84 2339 c-3 -6 -1 -16 5 -22 8 -8 11 -5 11 11 0 24 -5 28 -16 11z"/>
<path d="M78 2280 c-4 -14 -7 -43 -7 -65 l1 -40 9 34 c6 18 9 47 7 65 -3 30
-3 30 -10 6z"/>
<path d="M2105 2019 c-789 -15 -946 -20 -950 -33 -4 -14 -40 -707 -40 -763 1
-45 -18 -59 -30 -23 -3 11 -13 20 -21 20 -17 0 -17 4 0 -44 11 -33 15 -36 23
-21 8 13 12 14 18 5 4 -7 2 -16 -6 -21 -10 -6 -4 -9 18 -9 25 0 31 4 27 15 -4
8 -1 15 5 15 6 0 11 -7 11 -15 0 -18 5 -19 29 -3 14 9 60 9 192 0 461 -30 641
-42 834 -52 359 -20 415 -26 431 -47 13 -16 13 -15 3 9 -8 19 -18 27 -33 25
-12 -1 -22 5 -24 16 -2 12 3 17 19 17 l22 0 -8 258 c-4 141 -11 347 -14 457
l-6 200 -30 1 c-16 1 -228 -3 -470 -7z m486 -271 c4 -139 11 -338 15 -441 l6
-188 -78 6 c-44 3 -162 10 -264 15 -102 6 -365 22 -585 35 -220 14 -435 25
-478 25 l-78 0 6 73 c7 92 22 370 31 558 l7 147 271 6 c372 9 1130 22 1135 19
2 -1 7 -116 12 -255z m-751 -610 c0 -4 -9 -8 -20 -8 -11 0 -20 4 -20 9 0 6 9
9 20 8 11 -1 20 -5 20 -9z"/>
<path d="M1585 1806 c-26 -31 -44 -60 -40 -66 4 -6 1 -9 -5 -8 -6 2 -23 -17
-38 -42 -17 -30 -21 -40 -9 -31 9 7 17 20 17 28 0 8 5 11 12 7 7 -4 8 -3 4 5
-4 6 0 14 9 17 9 4 23 20 31 36 19 37 32 29 28 -19 -2 -37 -2 -37 7 -8 5 17
13 49 19 73 12 46 20 51 47 24 10 -9 59 -37 110 -61 51 -25 89 -49 86 -55 -4
-5 0 -7 10 -3 9 3 19 2 22 -4 4 -5 11 -7 16 -4 5 4 9 2 9 -4 0 -6 7 -8 15 -5
10 4 -34 31 -116 70 -72 35 -143 73 -159 84 l-28 20 -47 -54z"/>
<path d="M1677 1684 c-3 -4 -3 -14 2 -23 5 -9 14 -47 21 -86 19 -104 19 -107
26 -142 3 -18 10 -30 15 -27 5 3 7 10 4 15 -4 5 -3 14 0 20 4 6 17 -3 31 -22
13 -18 23 -34 21 -35 -1 -2 -77 -31 -167 -65 -156 -58 -223 -87 -175 -75 81
20 112 29 123 38 6 6 12 7 12 2 0 -5 4 -4 8 1 4 6 39 21 77 34 39 13 75 27 80
31 9 6 21 10 80 26 6 1 36 12 68 23 31 11 57 17 57 14 0 -3 7 0 15 7 9 7 18
10 21 7 4 -3 13 0 21 8 8 8 25 15 38 15 13 0 27 5 30 10 3 6 15 10 26 10 10 0
67 16 125 35 58 19 109 33 114 30 5 -3 10 -1 12 4 1 5 17 12 34 15 28 6 33 3
56 -32 l26 -39 -36 -11 -37 -10 37 5 c28 4 42 0 59 -16 25 -23 25 -24 -16 -40
l-30 -11 28 5 c39 8 64 -2 70 -25 3 -11 10 -20 17 -20 14 0 13 1 -68 123 -36
53 -71 97 -79 97 -17 0 -415 -124 -516 -161 -45 -16 -86 -29 -92 -29 -16 0
-74 121 -104 218 -15 46 -30 80 -34 76z"/>
<path d="M1990 1671 c19 -10 39 -15 44 -12 6 2 -6 10 -25 17 -50 18 -59 16
-19 -5z"/>
<path d="M1417 1591 c-26 -15 -53 -34 -60 -41 -12 -13 51 22 94 52 37 26 19
21 -34 -11z"/>
<path d="M2325 1505 c-39 -14 -40 -14 -5 -8 41 7 82 22 60 22 -8 0 -33 -7 -55
-14z"/>
<path d="M2225 1475 c-40 -14 -40 -14 -5 -8 19 3 42 9 50 14 22 12 1 9 -45 -6z"/>
<path d="M2135 1450 c-13 -5 -14 -9 -5 -9 8 0 24 4 35 9 13 5 14 9 5 9 -8 0
-24 -4 -35 -9z"/>
<path d="M2205 1410 c-13 -5 -14 -9 -5 -9 8 0 24 4 35 9 13 5 14 9 5 9 -8 0
-24 -4 -35 -9z"/>
<path d="M2275 1360 c-25 -11 1 -11 35 0 20 6 21 8 5 8 -11 0 -29 -3 -40 -8z"/>
<path d="M2195 1340 c-13 -5 -14 -9 -5 -9 8 0 24 4 35 9 13 5 14 9 5 9 -8 0
-24 -4 -35 -9z"/>
<path d="M2453 1327 c-24 -6 -43 -14 -43 -18 0 -5 21 -2 48 6 26 7 56 15 67
18 15 4 14 5 -5 4 -14 0 -44 -5 -67 -10z"/>
<path d="M2350 1300 c-20 -6 -21 -8 -5 -8 11 0 29 3 40 8 25 11 -1 11 -35 0z"/>
<path d="M2255 1275 c-39 -14 -40 -14 -5 -8 41 7 82 22 60 22 -8 0 -33 -7 -55
-14z"/>
<path d="M2165 1250 c-13 -5 -14 -9 -5 -9 8 0 24 4 35 9 13 5 14 9 5 9 -8 0
-24 -4 -35 -9z"/>
<path d="M564 1705 c-155 -7 -286 -15 -293 -19 -8 -5 -11 -84 -11 -266 l0
-258 37 4 c21 2 104 9 186 15 81 6 147 16 147 20 0 5 11 7 24 3 27 -6 213 10
314 28 l64 11 -7 221 c-4 121 -9 229 -11 239 -6 20 -22 20 -450 2z m440 -222
c3 -114 3 -210 -1 -213 -5 -4 -147 -19 -318 -34 -170 -15 -331 -30 -357 -33
l-48 -6 0 232 0 231 48 1 c26 0 162 7 302 14 140 6 280 13 311 14 l56 1 7
-207z"/>
<path d="M523 1542 c-41 -52 -51 -71 -25 -49 11 11 25 16 31 13 5 -3 12 7 16
24 6 26 10 29 33 24 30 -7 28 -3 -4 14 -19 10 -25 6 -51 -26z"/>
<path d="M616 1541 c12 -13 129 -51 151 -50 10 0 -9 8 -42 18 -33 9 -70 23
-82 29 -26 14 -41 16 -27 3z"/>
<path d="M572 1487 c9 -9 21 -39 28 -67 7 -29 18 -50 25 -50 17 0 -36 122 -56
129 -9 3 -8 -1 3 -12z"/>
<path d="M840 1441 c-223 -98 -360 -164 -360 -172 0 -4 28 6 63 23 34 17 68
31 75 31 6 0 12 4 12 8 0 3 10 9 23 12 23 5 168 68 177 77 3 3 14 7 25 8 11 2
23 8 26 13 3 5 14 7 24 3 13 -5 16 -4 11 4 -12 19 27 1 47 -23 13 -15 12 -10
-4 18 -11 20 -24 37 -27 36 -4 0 -45 -18 -92 -38z"/>
<path d="M470 1464 c0 -5 -20 -21 -43 -36 -24 -15 -52 -38 -63 -50 l-19 -23
26 23 c14 12 29 22 33 22 4 0 12 5 19 10 7 6 23 19 37 29 14 11 22 23 18 27
-5 4 -8 3 -8 -2z"/>
<path d="M2716 1241 c-6 -10 -5 -16 2 -19 7 -2 12 -13 12 -25 0 -20 0 -20 -15
-1 -20 27 -19 -1 2 -33 16 -24 17 -24 25 -7 7 15 7 14 4 -5 -3 -14 -1 -30 4
-36 14 -17 24 -155 11 -155 -10 0 -17 29 -25 102 -6 51 -18 69 -36 58 -13 -8
-12 -10 3 -10 10 0 15 -4 12 -10 -3 -5 -3 -10 2 -10 4 0 7 -19 5 -42 -2 -24 4
-60 12 -80 15 -36 19 -38 62 -38 25 0 43 4 40 9 -4 5 0 11 6 14 10 3 10 7 0
19 -9 12 -10 17 -1 20 9 3 9 17 1 53 -5 28 -8 65 -5 83 3 17 1 32 -4 32 -6 0
-13 -26 -16 -57 -4 -32 -9 -69 -13 -83 l-5 -25 15 25 c8 14 16 23 16 20 7 -30
7 -40 0 -40 -5 0 -11 -14 -15 -31 -5 -21 -12 -29 -23 -27 -17 3 -18 24 -7 123
4 31 3 36 -5 20 -8 -15 -9 -7 -5 32 5 44 3 52 -13 57 -11 4 -22 22 -28 44 -7
28 -11 33 -18 23z"/>
<path d="M2807 1233 c-11 -11 -8 -63 4 -63 5 0 7 5 4 10 -4 6 -1 18 7 27 11
14 11 16 -1 8 -11 -6 -13 -4 -8 8 7 18 5 21 -6 10z"/>
<path d="M2673 1180 c0 -25 2 -35 4 -22 2 12 2 32 0 45 -2 12 -4 2 -4 -23z"/>
<path d="M648 1171 c-192 -19 -348 -39 -348 -44 0 -6 20 -7 48 -4 51 7 401 43
510 53 103 10 158 19 147 25 -5 3 -166 -11 -357 -30z"/>
<path d="M2860 1194 c0 -8 -4 -13 -9 -9 -5 3 -13 0 -17 -6 -4 -8 -3 -9 4 -5 8
5 13 -3 14 -21 1 -15 3 -37 4 -48 1 -11 2 -37 3 -58 1 -21 5 -36 10 -33 5 3 7
15 4 26 -3 11 0 20 6 20 6 0 11 8 11 18 0 9 7 29 14 44 10 19 11 30 4 34 -7 5
-8 2 -3 -7 6 -11 5 -11 -4 -3 -10 9 -10 17 -1 34 10 18 9 21 -2 18 -7 -3 -15
-15 -16 -29 -2 -13 -8 -28 -14 -34 -7 -7 -8 4 -3 33 4 23 4 42 1 42 -3 0 -6
-7 -6 -16z"/>
<path d="M950 1165 c0 -18 36 -20 43 -2 4 9 6 9 6 0 1 -6 -3 -15 -9 -18 -15
-9 -12 -28 3 -22 10 4 13 -2 9 -20 -3 -18 -1 -24 7 -19 6 4 11 3 11 -3 0 -5
-17 -11 -37 -13 -49 -4 -57 -28 -9 -28 20 0 36 5 36 11 0 6 6 9 14 6 12 -5 12
3 0 51 -7 31 -13 60 -14 65 0 4 -13 7 -30 7 -20 0 -30 -5 -30 -15z"/>
<path d="M867 1163 c-12 -11 -8 -23 8 -23 8 0 15 7 15 15 0 16 -12 20 -23 8z"/>
<path d="M776 1145 c4 -8 10 -15 15 -15 5 0 9 7 9 15 0 8 -7 15 -15 15 -9 0
-12 -6 -9 -15z"/>
<path d="M820 1150 c19 -13 30 -13 30 0 0 6 -10 10 -22 10 -19 0 -20 -2 -8
-10z"/>
<path d="M258 998 c-1 -84 -2 -191 -2 -238 l-1 -85 40 1 c58 1 139 16 146 26
3 5 29 11 58 15 40 4 55 2 63 -8 7 -11 8 -9 6 6 -2 14 -11 20 -26 19 -14 -1
-22 4 -22 15 0 11 -3 12 -8 4 -14 -22 -128 -54 -183 -51 l-52 3 2 223 c2 150
-1 222 -8 222 -7 0 -12 -53 -13 -152z"/>
<path d="M680 1135 c0 -8 5 -15 10 -15 6 0 10 7 10 15 0 8 -4 15 -10 15 -5 0
-10 -7 -10 -15z"/>
<path d="M580 1125 c0 -8 5 -15 10 -15 6 0 10 7 10 15 0 8 -4 15 -10 15 -5 0
-10 -7 -10 -15z"/>
<path d="M897 1126 c-4 -10 0 -14 12 -13 11 1 17 7 14 14 -7 17 -20 17 -26 -1z"/>
<path d="M940 1131 c0 -6 5 -13 10 -16 6 -4 8 -10 5 -15 -3 -4 1 -10 9 -13 8
-3 17 0 19 8 4 8 -3 15 -16 19 -18 5 -20 8 -7 16 13 8 12 10 -2 10 -10 0 -18
-4 -18 -9z"/>
<path d="M1223 1114 c-24 -27 -30 -39 -13 -29 6 3 10 -3 10 -14 0 -11 -5 -23
-10 -26 -6 -4 -7 -11 -4 -17 4 -7 2 -8 -4 -4 -8 5 -12 -1 -12 -14 0 -12 -4
-19 -9 -16 -4 3 -8 -7 -7 -22 1 -18 -5 -28 -16 -30 -11 -2 -18 3 -18 11 0 8
-8 25 -19 38 -10 13 -21 40 -25 59 -4 19 -14 44 -23 55 -16 20 -16 20 -9 0 4
-11 14 -49 22 -85 8 -36 17 -76 20 -88 4 -20 7 -22 19 -12 11 9 15 9 15 1 0
-6 8 -11 18 -11 15 0 15 2 2 11 -11 8 -8 9 13 4 41 -9 67 2 67 29 0 12 -5 27
-10 32 -11 11 4 102 22 137 13 25 -4 20 -29 -9z m-18 -131 c-2 -10 -4 -22 -4
-27 -1 -6 -6 -5 -13 2 -8 8 -8 15 2 27 16 19 19 19 15 -2z"/>
<path d="M800 1115 c-14 -16 -10 -18 14 -9 9 3 16 10 16 15 0 14 -16 11 -30
-6z"/>
<path d="M845 1119 c-12 -18 3 -22 20 -5 14 14 14 16 1 16 -8 0 -18 -5 -21
-11z"/>
<path d="M367 1114 c-9 -10 2 -24 19 -24 8 0 14 7 14 15 0 15 -21 21 -33 9z"/>
<path d="M425 1109 c-4 -6 -5 -13 -2 -16 7 -7 27 6 27 18 0 12 -17 12 -25 -2z"/>
<path d="M706 1104 c-17 -12 -17 -14 -4 -14 9 0 20 5 23 11 11 17 2 18 -19 3z"/>
<path d="M745 1109 c-12 -18 3 -22 20 -5 14 14 14 16 1 16 -8 0 -18 -5 -21
-11z"/>
<path d="M2657 1105 c-4 -9 0 -32 8 -52 18 -43 18 -46 3 -37 -8 5 -8 1 1 -10
13 -15 13 -19 0 -27 -12 -8 -11 -12 5 -24 25 -19 60 -20 50 -2 -4 6 -16 22
-27 35 -13 14 -16 22 -8 22 14 0 13 7 -12 73 -10 29 -16 35 -20 22z"/>
<path d="M607 1099 c-9 -6 -15 -14 -12 -20 4 -5 13 -2 22 6 19 20 14 27 -10
14z"/>
<path d="M650 1100 c-8 -5 -11 -12 -7 -16 4 -4 15 0 24 9 18 18 8 23 -17 7z"/>
<path d="M1493 1094 c-3 -10 -11 -22 -16 -25 -5 -3 -2 -9 7 -12 11 -4 18 1 22
19 8 30 -3 45 -13 18z"/>
<path d="M2935 1099 c3 -4 -2 -10 -11 -13 -9 -4 -14 -13 -10 -22 3 -8 2 -13
-3 -10 -10 7 -27 -34 -36 -86 -4 -28 -2 -38 7 -38 10 0 10 -2 1 -8 -6 -4 -14
-36 -18 -72 -8 -75 -17 -90 -54 -90 -68 0 -96 34 -84 104 4 26 0 39 -17 56
-27 27 -45 15 -31 -22 5 -13 12 -50 16 -82 7 -54 10 -59 41 -72 38 -16 140
-19 149 -4 3 6 10 40 15 78 5 37 12 85 16 106 6 34 4 38 -10 33 -24 -9 -20 4
16 48 22 27 24 33 9 20 l-24 -20 26 51 c19 38 22 51 12 51 -8 0 -12 -4 -10 -8z"/>
<path d="M504 1086 c-10 -8 -16 -18 -12 -21 4 -4 15 0 24 9 21 22 13 30 -12
12z"/>
<path d="M546 1085 c-3 -8 -1 -15 4 -15 6 0 10 5 10 11 0 5 5 7 10 4 6 -3 10
-1 10 4 0 17 -27 13 -34 -4z"/>
<path d="M910 1085 c0 -8 6 -15 13 -15 8 0 14 7 14 15 0 8 -6 15 -14 15 -7 0
-13 -7 -13 -15z"/>
<path d="M1552 1065 c0 -22 2 -32 5 -22 3 10 14 17 28 17 19 0 23 -4 18 -17
-6 -16 -5 -16 11 -4 17 14 17 15 0 28 -10 7 -26 13 -35 13 -10 0 -20 6 -22 13
-3 6 -5 -6 -5 -28z"/>
<path d="M446 1074 c-5 -12 -2 -15 10 -10 8 3 18 6 20 6 2 0 4 5 4 10 0 16
-27 11 -34 -6z"/>
<path d="M770 1075 c-17 -21 -5 -31 15 -12 8 9 15 18 15 21 0 11 -18 6 -30 -9z"/>
<path d="M816 1075 c-3 -8 -3 -15 0 -15 3 0 12 7 20 15 13 13 13 15 1 15 -8 0
-17 -7 -21 -15z"/>
<path d="M328 1073 c-26 -4 -41 -33 -18 -33 6 0 10 4 10 9 0 4 11 6 25 3 18
-3 25 0 25 12 0 9 -3 15 -7 15 -5 -1 -20 -4 -35 -6z"/>
<path d="M395 1069 c-4 -6 -4 -13 0 -17 4 -4 10 -1 12 6 3 6 9 10 14 6 5 -3 9
0 9 5 0 14 -27 14 -35 0z"/>
<path d="M716 1065 c-3 -8 -3 -15 0 -15 3 0 12 7 20 15 13 13 13 15 1 15 -8 0
-17 -7 -21 -15z"/>
<path d="M1246 1065 c-3 -9 -5 -31 -5 -48 1 -27 3 -24 9 13 8 48 6 61 -4 35z"/>
<path d="M616 1055 c-3 -8 -3 -15 0 -15 3 0 12 7 20 15 13 13 13 15 1 15 -8 0
-17 -7 -21 -15z"/>
<path d="M664 1058 c-11 -17 6 -22 22 -7 13 14 13 16 -1 16 -9 0 -18 -4 -21
-9z"/>
<path d="M516 1045 c-3 -8 -1 -15 4 -15 6 0 10 6 10 13 0 8 4 7 10 -3 8 -13
10 -12 10 3 0 21 -26 23 -34 2z"/>
<path d="M565 1049 c-12 -18 3 -22 20 -5 14 14 14 16 1 16 -8 0 -18 -5 -21
-11z"/>
<path d="M846 1044 c-5 -12 -2 -15 10 -10 8 3 18 6 20 6 3 0 2 5 -1 10 -9 15
-22 12 -29 -6z"/>
<path d="M890 1045 c0 -6 9 -11 20 -12 11 -1 20 4 20 12 0 8 -9 13 -20 12 -11
-1 -20 -6 -20 -12z"/>
<path d="M1670 1045 c0 -9 5 -15 11 -13 6 2 11 8 11 13 0 5 -5 11 -11 13 -6 2
-11 -4 -11 -13z"/>
<path d="M86 1031 c-10 -11 -16 -26 -14 -34 2 -8 10 0 19 19 19 39 18 41 -5
15z"/>
<path d="M410 1035 c-17 -21 -5 -31 15 -12 8 9 15 18 15 21 0 11 -18 6 -30 -9z"/>
<path d="M463 1043 c-18 -7 -16 -23 3 -23 8 0 13 4 9 9 -3 5 3 12 12 14 12 3
13 5 3 5 -8 0 -21 -2 -27 -5z"/>
<path d="M795 1039 c-12 -18 3 -22 20 -5 14 14 14 16 1 16 -8 0 -18 -5 -21
-11z"/>
<path d="M1740 1043 c-14 -3 -29 -9 -34 -14 -6 -5 -21 -9 -35 -10 l-26 0 23
-10 c15 -6 60 -4 129 6 58 8 109 12 114 9 5 -3 9 -1 9 4 0 6 -7 13 -16 16 -17
7 -125 6 -164 -1z"/>
<path d="M2101 1015 c0 -35 1 -37 10 -17 6 15 5 30 -1 40 -7 13 -9 8 -9 -23z"/>
<path d="M328 1033 c-18 -3 -28 -10 -28 -21 0 -15 2 -15 10 -2 5 8 10 10 10 5
0 -7 15 -9 35 -7 21 3 35 10 35 18 0 14 -9 15 -62 7z"/>
<path d="M594 1019 c0 -22 -1 -21 20 -13 21 8 20 21 -2 26 -12 4 -18 -1 -18
-13z"/>
<path d="M700 1025 c-10 -12 -10 -15 3 -15 8 0 17 7 21 15 3 8 2 15 -3 15 -5
0 -14 -7 -21 -15z"/>
<path d="M1004 1029 c-9 -15 11 -33 30 -26 9 4 13 13 10 22 -7 17 -30 20 -40
4z"/>
<path d="M2043 985 c0 -33 2 -45 4 -27 2 18 2 45 0 60 -2 15 -4 0 -4 -33z"/>
<path d="M647 1023 c-12 -11 -8 -23 9 -23 8 0 13 4 10 9 -4 5 0 12 6 14 9 4 8
6 -3 6 -9 1 -19 -2 -22 -6z"/>
<path d="M961 1018 c-1 -12 6 -18 19 -18 14 0 18 5 13 16 -4 11 -8 12 -13 4
-6 -9 -9 -9 -13 1 -4 10 -6 9 -6 -3z"/>
<path d="M493 1005 c-17 -19 -16 -25 2 -25 8 0 15 2 15 4 0 2 3 11 6 20 8 20
-7 20 -23 1z"/>
<path d="M545 1009 c-4 -6 -4 -13 0 -17 4 -4 10 -1 12 6 3 6 9 10 14 6 5 -3 9
0 9 5 0 14 -27 14 -35 0z"/>
<path d="M867 1013 c-4 -3 -7 -13 -7 -22 0 -13 2 -13 9 -2 5 7 14 10 20 7 6
-4 11 0 11 8 0 16 -21 22 -33 9z"/>
<path d="M910 1003 c0 -7 9 -13 20 -13 11 0 20 6 20 14 0 9 -9 14 -20 13 -11
-1 -20 -7 -20 -14z"/>
<path d="M1535 914 c-4 -60 -11 -131 -15 -157 -8 -55 -11 -53 75 -61 33 -3 80
-8 105 -11 32 -4 41 -3 30 5 -8 5 -25 10 -37 10 -18 0 -23 6 -23 25 0 23 3 25
48 25 27 0 57 6 68 15 10 8 31 15 46 15 15 0 30 5 33 10 3 6 20 10 37 10 17 0
29 3 26 6 -10 9 -151 42 -197 45 -41 3 -47 0 -74 -34 -39 -47 -28 -60 14 -16
17 19 29 26 26 17 -8 -22 -8 -22 33 -2 27 14 39 15 65 5 17 -6 40 -11 51 -12
12 0 9 -4 -11 -10 -16 -5 -38 -7 -47 -5 -10 2 -22 -2 -29 -10 -6 -8 -26 -14
-44 -14 -25 0 -40 -8 -58 -30 -18 -21 -35 -30 -57 -30 l-30 0 16 28 16 27 -20
-25 c-16 -19 -24 -22 -33 -13 -24 24 69 124 109 115 6 -2 12 2 12 7 0 10 -74
7 -110 -4 -17 -6 -20 -2 -19 27 0 18 4 54 8 80 4 26 4 52 0 59 -4 6 -10 -37
-14 -97z"/>
<path d="M436 995 c-3 -8 -1 -15 4 -15 6 0 10 5 10 11 0 5 5 7 10 4 6 -3 10
-1 10 4 0 17 -27 13 -34 -4z"/>
<path d="M680 994 c-52 -7 -105 -13 -117 -13 -14 -1 -23 -7 -23 -16 0 -18 21
-18 149 -2 52 7 96 18 98 24 7 19 -9 20 -107 7z"/>
<path d="M806 1001 c-3 -5 1 -12 10 -15 25 -10 34 -7 34 9 0 16 -35 21 -44 6z"/>
<path d="M323 993 c-13 -3 -23 -12 -23 -21 0 -13 2 -14 9 -3 6 9 10 10 12 2 6
-16 39 -3 39 15 0 8 -3 13 -7 13 -5 -1 -18 -4 -30 -6z"/>
<path d="M370 983 c0 -19 42 -13 47 7 4 13 3 13 -6 0 -6 -8 -11 -10 -11 -4 0
6 -7 11 -15 11 -8 0 -15 -7 -15 -14z"/>
<path d="M420 952 c0 -12 -3 -13 -12 -4 -19 19 -48 15 -48 -8 0 -11 5 -20 11
-20 5 0 7 5 3 11 -4 8 3 9 25 4 20 -4 31 -3 31 4 0 6 5 11 11 11 5 0 7 -4 4
-10 -3 -5 -1 -10 4 -10 21 0 11 36 -9 37 -12 1 -20 -4 -20 -15z"/>
<path d="M470 958 c0 -7 14 -14 30 -15 23 -2 30 2 29 15 0 10 -3 12 -6 5 -2
-7 -9 -13 -14 -13 -6 0 -7 5 -4 10 3 6 -3 10 -14 10 -12 0 -21 -6 -21 -12z"/>
<path d="M300 937 c0 -7 11 -14 25 -15 16 -1 25 3 25 13 0 9 -10 15 -25 15
-14 0 -25 -6 -25 -13z"/>
<path d="M1453 924 c-3 -10 0 -20 9 -25 11 -6 13 -19 7 -61 -4 -29 -7 -69 -7
-88 1 -37 26 114 27 163 1 30 -25 38 -36 11z"/>
<path d="M2040 865 c0 -27 3 -46 6 -42 3 3 6 22 6 42 0 20 -3 39 -6 42 -3 4
-6 -15 -6 -42z"/>
<path d="M2069 871 c9 -6 10 -10 2 -14 -8 -4 -8 -5 1 -3 20 4 21 26 1 26 -14
0 -15 -2 -4 -9z"/>
<path d="M179 813 c19 -18 39 -33 45 -33 6 0 -1 7 -14 17 -14 9 -34 23 -46 32
-11 9 -5 1 15 -16z"/>
<path d="M2524 826 c11 -9 25 -16 32 -16 6 0 31 -9 55 -20 65 -29 79 -24 28
10 -49 32 -151 55 -115 26z"/>
<path d="M1102 814 c-10 -11 -33 -14 -103 -12 -51 2 -89 7 -89 13 0 6 -8 -6
-18 -25 -20 -39 -18 -55 4 -26 11 16 28 20 86 21 118 3 123 4 136 25 14 23 3
26 -16 4z"/>
<path d="M2096 791 c-8 -51 -1 -64 14 -30 7 16 8 33 2 49 -8 22 -9 20 -16 -19z"/>
<path d="M2008 790 c12 -5 22 -16 22 -24 0 -8 -10 -18 -22 -22 -22 -7 -22 -7
-3 -15 11 -4 14 -8 8 -8 -7 -1 -13 -6 -13 -13 0 -6 3 -8 7 -5 3 4 12 2 20 -4
11 -9 13 -1 13 45 0 55 -1 56 -27 55 -27 0 -27 -1 -5 -9z"/>
<path d="M778 763 c12 -2 32 -2 45 0 12 2 2 4 -23 4 -25 0 -35 -2 -22 -4z"/>
<path d="M930 750 c-24 -8 -24 -8 7 -9 23 -1 33 -7 38 -22 4 -12 3 -24 -2 -29
-8 -8 -164 -37 -243 -46 -25 -2 -83 -13 -130 -24 -47 -11 -113 -22 -147 -25
-61 -7 -63 -6 -63 17 0 12 -4 29 -9 37 -6 9 -9 -4 -9 -38 -1 -49 0 -52 21 -44
12 4 47 8 77 7 35 -1 46 1 30 6 -21 5 -16 7 25 13 97 12 488 77 492 81 7 7
-41 86 -52 85 -5 -1 -21 -5 -35 -9z"/>
<path d="M2180 745 c-7 -8 -30 -18 -51 -21 -38 -6 -39 -7 -38 -48 1 -22 3 -33
6 -23 2 9 9 17 14 17 5 0 9 5 9 11 0 5 -4 7 -10 4 -5 -3 -10 1 -10 9 0 10 9
16 24 16 21 0 94 49 75 50 -4 0 -12 -7 -19 -15z"/>
<path d="M105 710 c44 -11 126 -11 99 0 -11 4 -45 8 -75 8 -44 -1 -48 -2 -24
-8z"/>
<path d="M23 698 c-13 -6 -23 -15 -23 -20 0 -8 17 -1 50 22 20 13 1 12 -27 -2z"/>
<path d="M1422 690 c-52 -12 -51 -21 3 -20 55 1 216 -16 247 -26 11 -3 17 -12
14 -19 -7 -20 27 -29 40 -10 11 15 13 15 17 -2 5 -17 5 -17 6 0 1 13 7 17 24
15 13 -2 21 -10 19 -18 -2 -13 0 -13 10 0 16 19 46 15 50 -7 2 -12 7 -8 18 12
12 22 12 29 3 32 -7 3 -13 11 -13 19 0 8 -8 14 -17 14 -12 0 -14 -3 -6 -8 7
-4 8 -13 4 -20 -8 -13 -37 -12 -58 1 -6 4 -14 3 -17 -2 -4 -5 -21 -5 -43 0
-21 5 -83 14 -138 20 -55 5 -104 14 -109 20 -6 5 -12 9 -15 8 -4 -1 -21 -5
-39 -9z"/>
<path d="M1265 679 c-9 -14 -3 -18 34 -23 29 -3 51 7 34 17 -22 12 -63 16 -68
6z"/>
<path d="M1750 683 c0 -5 17 -9 38 -10 32 -1 33 0 12 7 -33 11 -50 12 -50 3z"/>
<path d="M2890 681 c-26 -7 -50 -43 -50 -74 0 -18 72 -58 133 -72 25 -7 27 -5
27 21 0 15 -3 25 -6 21 -3 -3 -28 3 -55 13 -27 11 -49 17 -49 13 0 -4 -7 2
-14 13 -14 17 -13 20 12 31 15 7 47 12 70 13 30 0 42 4 40 13 -5 14 -71 19
-108 8z"/>
<path d="M1526 629 c-14 -11 -26 -17 -26 -14 0 4 -7 2 -15 -5 -8 -7 -15 -20
-14 -29 0 -13 2 -13 8 2 4 10 11 19 16 19 6 0 16 5 24 11 7 7 21 12 29 12 8 0
17 6 19 13 7 18 -11 15 -41 -9z"/>
<path d="M1192 589 c-52 -58 -64 -99 -30 -98 13 0 17 3 11 6 -23 9 -14 20 11
16 16 -3 23 -10 19 -19 -4 -10 3 -14 21 -14 14 0 26 4 26 10 0 5 -8 6 -17 3
-16 -6 -16 -5 -4 10 12 15 12 17 -4 10 -14 -5 -17 -3 -12 10 4 12 2 14 -10 10
-10 -4 -14 -2 -10 4 4 6 1 13 -5 16 -7 2 11 4 39 3 29 -1 53 -5 53 -11 0 -5 4
-4 9 4 15 24 2 37 -33 33 -44 -5 -58 16 -17 24 42 9 57 29 23 30 -20 1 -38
-11 -70 -47z"/>
<path d="M1580 628 c0 -4 5 -8 10 -8 7 0 7 -7 0 -22 -11 -22 -10 -22 4 -4 21
26 56 31 56 8 0 -14 2 -15 10 -2 15 23 12 28 -15 25 -14 -1 -25 1 -25 6 0 4
-9 7 -20 6 -11 -1 -20 -5 -20 -9z"/>
<path d="M1890 630 c0 -5 12 -10 28 -10 15 0 52 -3 82 -6 36 -3 50 -2 40 4
-23 14 -150 25 -150 12z"/>
<path d="M1370 619 c-12 -9 -12 -10 4 -5 10 4 25 1 33 -5 11 -9 17 -9 26 0 9
10 8 11 -4 6 -10 -4 -20 -2 -24 4 -8 14 -16 14 -35 0z"/>
<path d="M3 613 c4 -3 24 -7 44 -8 21 -1 37 -6 36 -12 -2 -8 7 -7 28 0 l31 12
-28 6 c-40 9 -119 10 -111 2z"/>
<path d="M1971 591 c-11 -7 -11 -9 0 -13 8 -3 5 -7 -9 -10 -15 -4 -22 -2 -22
8 0 8 -4 14 -9 14 -13 0 -1 -40 13 -41 6 0 27 -1 46 -2 28 -2 36 -7 38 -23 2
-17 8 -21 24 -16 15 4 19 2 14 -7 -4 -7 -17 -11 -28 -9 -16 2 -21 -3 -23 -22
-3 -22 1 -26 23 -25 23 0 27 -4 27 -30 0 -25 -4 -30 -27 -32 -16 -1 -28 3 -28
10 0 8 -3 7 -9 -2 -6 -9 -11 -10 -15 -3 -4 6 -13 9 -21 5 -9 -3 -15 1 -15 8 0
11 -3 11 -11 -1 -7 -11 -12 -12 -15 -3 -3 7 -11 10 -18 7 -17 -6 -26 17 -19
45 3 14 13 21 28 21 13 0 26 6 29 13 3 6 3 2 0 -10 -3 -13 -1 -23 5 -23 6 0
11 9 11 20 0 15 7 20 24 20 25 0 43 15 29 23 -5 3 -31 7 -59 11 -41 5 -53 3
-58 -9 -3 -8 -10 -15 -15 -15 -17 0 -66 -51 -63 -65 1 -8 -2 -16 -8 -20 -6 -4
-10 4 -10 19 0 25 -12 32 -49 26 -9 -1 -12 4 -8 14 4 10 1 16 -8 16 -8 0 -15
-5 -15 -11 0 -5 -4 -7 -10 -4 -5 3 -10 -1 -10 -9 0 -18 33 -30 60 -21 14 5 20
2 20 -9 0 -9 -3 -15 -7 -15 -5 1 -19 0 -33 -1 -19 -2 -16 -4 15 -11 60 -12 75
-11 75 7 0 11 5 14 16 10 9 -3 20 -6 25 -6 16 0 9 -18 -8 -22 -10 -2 32 -11
92 -19 61 -8 112 -14 113 -13 9 6 49 184 42 184 -5 0 -14 -25 -20 -56 -7 -34
-15 -53 -21 -47 -6 6 -4 26 5 51 9 23 15 44 16 47 0 3 0 6 1 8 9 31 5 37 -26
37 -19 0 -37 -4 -40 -10 -3 -5 -1 -10 4 -10 6 0 11 -8 11 -17 -1 -15 -4 -14
-20 6 -11 12 -17 27 -14 32 7 11 -17 11 -35 0z"/>
<path d="M1551 573 c0 -12 -5 -25 -11 -28 -5 -3 -9 -14 -9 -23 1 -14 2 -15 6
-1 2 8 14 20 26 25 12 6 17 9 10 8 -6 -2 -14 7 -16 19 l-4 22 -2 -22z"/>
<path d="M1380 565 c-8 -9 -4 -11 15 -7 14 2 25 8 25 11 0 12 -29 9 -40 -4z"/>
<path d="M1601 563 c4 -22 -4 -32 -28 -41 -18 -7 -22 -11 -10 -11 18 -1 57 32
57 49 0 6 -4 10 -10 10 -5 0 -9 -3 -9 -7z"/>
<path d="M1714 540 c0 -11 4 -20 8 -20 4 0 8 9 8 20 0 11 -4 20 -8 20 -4 0 -8
-9 -8 -20z"/>
<path d="M1328 543 c-10 -3 -18 -9 -18 -14 0 -13 14 -11 29 4 11 10 12 7 7
-13 -6 -22 -5 -23 5 -7 13 22 2 35 -23 30z"/>
<path d="M1444 529 c-3 -5 6 -9 20 -9 31 0 34 6 6 13 -11 3 -23 1 -26 -4z"/>
<path d="M1770 520 c0 -12 28 -21 35 -11 2 5 -4 11 -15 14 -11 3 -20 2 -20 -3z"/>
<path d="M1625 510 c-19 -8 -19 -9 2 -9 12 -1 25 4 28 9 7 12 -2 12 -30 0z"/>
<path d="M1275 490 c-3 -6 0 -12 7 -14 31 -10 419 -58 424 -53 12 12 -9 27
-37 27 -17 0 -85 8 -152 17 -67 10 -145 18 -174 18 -28 0 -49 3 -46 8 2 4 0 7
-6 7 -5 0 -13 -5 -16 -10z"/>
<path d="M1140 458 c0 -4 5 -8 12 -8 19 0 696 -99 758 -111 84 -16 160 -22
160 -12 0 4 -93 21 -208 37 -114 15 -323 45 -464 65 -142 21 -258 34 -258 29z"/>
<path d="M2381 451 c-19 -12 -9 -72 20 -112 12 -17 37 -38 55 -45 37 -15 160
-19 168 -5 3 4 -19 8 -48 7 -77 -1 -101 16 -138 96 -33 72 -35 73 -57 59z m32
-61 c3 -14 1 -20 -6 -17 -7 2 -14 14 -15 26 -4 28 13 20 21 -9z"/>
<path d="M1960 420 c0 -5 7 -10 15 -10 8 0 15 5 15 10 0 6 -7 10 -15 10 -8 0
-15 -4 -15 -10z"/>
<path d="M2006 421 c-3 -5 7 -11 22 -14 32 -6 42 0 22 13 -19 12 -37 13 -44 1z"/>
<path d="M4 33 c12 -13 100 -32 141 -32 33 1 26 4 -40 19 -88 21 -112 24 -101
13z"/>
</g>
</svg>
